<?xml version="1.0" encoding="UTF-8"?>
<!-- Generator: Adobe Illustrator 16.0.3, SVG Export Plug-In . SVG Version: 6.00 Build 0)  -->
<!DOCTYPE svg PUBLIC "-//W3C//DTD SVG 1.1//EN" "http://www.w3.org/Graphics/SVG/1.1/DTD/svg11.dtd">
<svg version="1.1" id="Layer_4" xmlns="http://www.w3.org/2000/svg" xmlns:xlink="http://www.w3.org/1999/xlink" x="0px" y="0px" width="403.8px" height="104.3px" viewBox="0 0 403.8 104.3" enable-background="new 0 0 403.8 104.3" xml:space="preserve">
<g>
	<g>
		<path fill="#231F20" d="M134.7,44.5v-0.7c2.2-0.2,3.6-0.7,4.3-1.4c0.7-0.7,1-2.1,1-4.1V22.6c0-2.2-0.3-3.6-0.9-4.3    c-0.6-0.7-1.9-1.1-3.8-1.3v-0.7c1.7,0,3.6,0,5.5,0c2,0,3,0,3.2,0c4.3,0,7.4,0.5,9.4,1.5s2.9,2.7,2.9,4.9c0,1.7-0.5,3.1-1.6,4.2    c-1.1,1.1-2.8,1.9-5.2,2.4v0.2c3,0.7,5.1,1.6,6.5,2.9c1.4,1.3,2.1,2.8,2.1,4.8c0,1.2-0.3,2.3-0.9,3.3c-0.6,1-1.4,1.8-2.6,2.5    c-0.9,0.5-1.9,0.9-3.1,1.1c-1.2,0.2-3,0.3-5.5,0.3c-0.2,0-0.4,0-0.7,0c-0.3,0-0.5,0-0.7,0c-2.1,0-4.3,0-6.6,0    S134.8,44.5,134.7,44.5z M143.8,29.6c2.9-0.1,5.1-0.6,6.5-1.6c1.4-1,2.2-2.5,2.2-4.4c0-1.9-0.8-3.4-2.3-4.6    c-1.5-1.1-3.6-1.7-6.4-1.8V29.6z M143.8,38.1c0,2.3,0.3,3.8,0.9,4.5c0.6,0.7,1.6,1,3.2,1c1.8,0,3.3-0.5,4.4-1.6    c1.1-1,1.7-2.4,1.7-4.2c0-2.2-0.8-4-2.4-5.4c-1.6-1.4-3.7-2-6.4-2c-0.4,0-0.6,0-0.8,0c-0.2,0-0.3,0-0.5,0V38.1z"/>
	</g>
	<g>
		<path fill="#231F20" d="M160.3,44.5v-0.7c1.4-0.1,2.3-0.3,2.7-0.8s0.6-1.7,0.6-3.8v-6.7c0-1-0.1-1.8-0.4-2.3    c-0.3-0.5-0.7-1-1.4-1.5L161,28v-0.3l5.4-2l0.5,0.2c0,0.3,0,0.8,0,1.4c0,1.2,0,2,0,2.3v10.4c0,1.6,0.2,2.7,0.6,3.1    c0.4,0.4,1.3,0.7,2.6,0.8v0.7c-0.5,0-1.1,0-1.7-0.1c-0.6,0-1.6,0-3,0c-1.3,0-2.4,0-3.1,0C161.5,44.4,160.9,44.4,160.3,44.5z     M162.9,17.3c0-0.6,0.2-1.1,0.6-1.5c0.4-0.4,0.9-0.6,1.5-0.6c0.6,0,1.1,0.2,1.4,0.6s0.6,0.9,0.6,1.5c0,0.6-0.2,1.1-0.6,1.5    s-0.9,0.6-1.5,0.6c-0.6,0-1.1-0.2-1.5-0.6C163.1,18.4,162.9,17.9,162.9,17.3z"/>
		<path fill="#231F20" d="M171.5,35.2c0-2.7,1-5,2.9-6.8c1.9-1.8,4.3-2.7,7.2-2.7c3.1,0,5.5,0.9,7.3,2.6c1.8,1.7,2.7,4,2.7,6.9    c0,2.7-1,5-2.9,6.8c-1.9,1.8-4.3,2.7-7.2,2.7c-3,0-5.5-0.9-7.3-2.6S171.5,38,171.5,35.2z M181.6,26.5c-1.9,0-3.4,0.8-4.5,2.3    c-1.1,1.6-1.7,3.7-1.7,6.3c0,2.5,0.6,4.6,1.8,6.2c1.2,1.6,2.7,2.4,4.5,2.4c1.9,0,3.4-0.8,4.6-2.3c1.1-1.5,1.7-3.6,1.7-6.3    c0-2.5-0.6-4.6-1.8-6.2C184.9,27.3,183.4,26.5,181.6,26.5z"/>
		<path fill="#231F20" d="M208.4,45l0-3.9c-1.3,1.2-2.5,2.2-3.6,2.7c-1.1,0.6-2.2,0.9-3.4,0.9c-2.2,0-4-0.8-5.5-2.5    c-1.5-1.7-2.2-3.8-2.2-6.3c0-2.9,1-5.4,3.1-7.3s4.7-2.9,7.9-2.9c0.4,0,0.9,0,1.5,0.1c0.6,0.1,1.2,0.1,1.9,0.2l0-4.9v-0.6    c0-1-0.1-1.7-0.3-2c-0.2-0.4-0.6-0.8-1.3-1.2l-0.9-0.6v-0.3l5.4-1.6l0.4,0.2c0,1.6,0,3.3,0,5s0,2.8,0,3l0.1,16.1    c0,1.6,0.1,2.7,0.4,3.2s0.7,0.8,1.3,0.8c0.3,0,0.6,0,0.9-0.1s0.6-0.1,0.9-0.2l0.2,0.7L208.4,45z M208.3,33.8    c0-2.4-0.5-4.2-1.3-5.3c-0.9-1.1-2.2-1.7-4.1-1.7c-1.8,0-3.1,0.7-4.1,2c-1,1.4-1.5,3.2-1.5,5.7c0,2.3,0.6,4.1,1.9,5.6    c1.2,1.5,2.8,2.3,4.6,2.3c0.8,0,1.6-0.2,2.4-0.6c0.8-0.4,1.5-1.1,2.2-1.9L208.3,33.8z"/>
		<path fill="#231F20" d="M215.4,44.5v-0.7c1.4-0.1,2.3-0.3,2.7-0.8s0.6-1.7,0.6-3.8v-6.7c0-1-0.1-1.8-0.4-2.3    c-0.3-0.5-0.7-1-1.4-1.5l-0.8-0.7v-0.3l5.4-2l0.5,0.2c0,0.3,0,0.8,0,1.4c0,1.2,0,2,0,2.3v10.4c0,1.6,0.2,2.7,0.6,3.1    c0.4,0.4,1.3,0.7,2.6,0.8v0.7c-0.5,0-1.1,0-1.7-0.1c-0.6,0-1.6,0-3,0c-1.3,0-2.4,0-3.1,0C216.7,44.4,216,44.4,215.4,44.5z     M218.1,17.3c0-0.6,0.2-1.1,0.6-1.5c0.4-0.4,0.9-0.6,1.5-0.6c0.6,0,1.1,0.2,1.4,0.6s0.6,0.9,0.6,1.5c0,0.6-0.2,1.1-0.6,1.5    s-0.9,0.6-1.5,0.6c-0.6,0-1.1-0.2-1.5-0.6C218.3,18.4,218.1,17.9,218.1,17.3z"/>
		<path fill="#231F20" d="M234.9,45L229,30.5c-0.6-1.6-1.2-2.6-1.6-3c-0.5-0.4-1.1-0.7-1.9-0.7V26c0.4,0,1.1,0,2,0    c0.9,0,1.6,0,2.1,0c0.5,0,1.2,0,2.2,0s1.7,0,2.3,0v0.7c-0.9,0.1-1.5,0.2-1.9,0.5c-0.4,0.2-0.5,0.6-0.5,1.1c0,0.2,0.1,0.6,0.3,1.2    c0.2,0.6,0.4,1.2,0.7,2l3.8,9.5l2-4.9c0.8-2.1,1.5-3.8,1.9-5.2s0.7-2.1,0.7-2.4c0-0.5-0.2-0.9-0.6-1.1c-0.4-0.3-1.1-0.4-2.1-0.5    V26c0.4,0,1.1,0,1.9,0s1.5,0,1.9,0s1,0,1.8,0s1.4,0,1.8,0v0.7c-0.9,0.1-1.6,0.4-2.1,0.9s-1.2,1.8-2.1,3.7l-4.2,9.7    c-0.4,1-0.8,1.8-1,2.4c-0.2,0.6-0.5,1.2-0.7,1.7H234.9z"/>
		<path fill="#231F20" d="M261.6,39.6l0.6,0.5c-1,1.5-2.2,2.6-3.5,3.4c-1.3,0.8-2.7,1.2-4.2,1.2c-2.4,0-4.4-0.9-6-2.6    c-1.6-1.8-2.4-3.9-2.4-6.6c0-2.8,0.9-5.1,2.6-7c1.7-1.9,3.8-2.9,6.3-2.9c2,0,3.6,0.6,4.8,1.7c1.2,1.1,1.9,2.7,2,4.6    c-2.2-0.1-4.4-0.1-6.4-0.2c-2,0-3.9-0.1-5.7-0.1c-0.1,0.4-0.2,0.7-0.2,1.1c0,0.4-0.1,0.8-0.1,1.2c0,2.3,0.7,4.3,2,5.8    c1.4,1.5,3,2.3,5.1,2.3c1,0,1.9-0.2,2.8-0.6C260.2,41.1,260.9,40.5,261.6,39.6z M257.7,30.7c-0.3-1.3-0.7-2.4-1.3-3.1    c-0.6-0.7-1.4-1.1-2.3-1.1c-1,0-1.9,0.4-2.7,1.2c-0.8,0.8-1.3,1.8-1.6,3.2L257.7,30.7z"/>
		<path fill="#231F20" d="M263.8,44.5v-0.7c1-0.1,1.7-0.4,2.1-0.9c0.4-0.5,0.5-1.5,0.5-3.2l0-7.3c0-1-0.1-1.7-0.3-2.2    c-0.2-0.5-0.5-0.9-1-1.2l-0.8-0.6V28l5-2.3l0.3,0.2l-0.1,4.8c0.9-1.5,1.8-2.7,2.8-3.5s2.1-1.2,3.2-1.2c0.6,0,1.1,0.2,1.5,0.5    c0.4,0.3,0.6,0.7,0.6,1.2c0,0.5-0.2,0.9-0.5,1.4c-0.3,0.4-0.9,0.9-1.6,1.3c-0.5-0.4-1.1-0.8-1.5-1c-0.5-0.2-0.9-0.4-1.2-0.4    c-0.9,0-1.7,0.5-2.3,1.6s-0.9,2.5-0.9,4.2v4.8c0,1.8,0.3,2.9,0.8,3.3c0.5,0.5,1.7,0.8,3.5,0.9v0.7c-0.6,0-1.3,0-2-0.1    c-0.7,0-1.8,0-3.2,0c-1.4,0-2.4,0-3,0C264.9,44.4,264.3,44.4,263.8,44.5z"/>
		<path fill="#231F20" d="M279,43.2l-0.3-4.5l0.9-0.1c0.3,1.6,0.9,2.9,1.8,3.9s1.8,1.4,3,1.4c1,0,1.8-0.3,2.4-1    c0.6-0.6,0.9-1.5,0.9-2.5c0-0.6-0.2-1.2-0.6-1.8c-0.4-0.5-1-1-1.7-1.4l-2-1.1c-1.4-0.8-2.5-1.6-3.1-2.4c-0.6-0.8-0.9-1.7-0.9-2.8    c0-1.5,0.6-2.8,1.7-3.7c1.1-1,2.6-1.5,4.3-1.5c0.7,0,1.5,0.1,2.2,0.3c0.8,0.2,1.5,0.6,2.3,1l0.2,3.9h-0.9    c-0.5-1.5-1.1-2.6-1.8-3.3s-1.4-1-2.3-1c-0.8,0-1.4,0.3-2,0.9c-0.5,0.6-0.8,1.3-0.8,2.1c0,0.7,0.2,1.2,0.6,1.8    c0.4,0.5,1.2,1.1,2.3,1.8l2.3,1.4c1.3,0.8,2.2,1.5,2.6,2.2c0.5,0.7,0.7,1.4,0.7,2.3c0,1.6-0.6,2.9-1.9,4s-2.9,1.6-4.8,1.6    c-0.9,0-1.8-0.1-2.7-0.4S279.8,43.7,279,43.2z"/>
		<path fill="#231F20" d="M293.3,44.5v-0.7c1.4-0.1,2.3-0.3,2.7-0.8s0.6-1.7,0.6-3.8v-6.7c0-1-0.1-1.8-0.4-2.3    c-0.3-0.5-0.7-1-1.4-1.5L294,28v-0.3l5.4-2l0.5,0.2c0,0.3,0,0.8,0,1.4c0,1.2,0,2,0,2.3v10.4c0,1.6,0.2,2.7,0.6,3.1    c0.4,0.4,1.3,0.7,2.6,0.8v0.7c-0.5,0-1.1,0-1.7-0.1c-0.6,0-1.6,0-3,0c-1.3,0-2.4,0-3.1,0C294.6,44.4,293.9,44.4,293.3,44.5z     M296,17.3c0-0.6,0.2-1.1,0.6-1.5c0.4-0.4,0.9-0.6,1.5-0.6c0.6,0,1.1,0.2,1.4,0.6s0.6,0.9,0.6,1.5c0,0.6-0.2,1.1-0.6,1.5    s-0.9,0.6-1.5,0.6c-0.6,0-1.1-0.2-1.5-0.6C296.2,18.4,296,17.9,296,17.3z"/>
		<path fill="#231F20" d="M306.8,40.7l0.2-12.1h-2.7l-0.2-0.2l5.9-5.9l0.4,0.1l-0.2,3.9h6.6v2.1h-6.5l0,7.3c0,2.1,0.1,3.5,0.2,4.2    c0.1,0.7,0.3,1.2,0.6,1.6c0.3,0.4,0.8,0.7,1.4,1c0.6,0.2,1.3,0.3,2.2,0.3c0.4,0,0.7,0,1.1-0.1c0.4,0,0.8-0.1,1.3-0.2l0.2,0.7    c-1.2,0.4-2.3,0.8-3.4,1c-1,0.2-2,0.3-2.9,0.3c-1.4,0-2.5-0.3-3.1-0.9c-0.6-0.6-0.9-1.6-0.9-3V40.7z"/>
		<path fill="#231F20" d="M326.1,45.7L320,30.2c-0.6-1.4-1.1-2.3-1.5-2.7c-0.4-0.4-1-0.6-1.7-0.7V26c0.5,0,1.2,0,2.2,0    c1,0,1.7,0,2.2,0c0.5,0,1.2,0,2.1,0s1.6,0,2.1,0v0.7c-0.8,0.1-1.4,0.3-1.8,0.5c-0.4,0.2-0.6,0.5-0.6,0.8c0,0.3,0,0.6,0.1,1    c0.1,0.4,0.2,0.8,0.4,1.3l4.2,10.9l1.5-4.2c0.8-2.1,1.4-4,1.9-5.6c0.5-1.6,0.7-2.7,0.7-3.3c0-0.4-0.2-0.7-0.6-0.9    c-0.4-0.3-1-0.5-1.8-0.6V26c0.5,0,1.2,0,2,0s1.5,0,1.9,0c0.4,0,1,0,1.8,0s1.3,0,1.7,0v0.7c-0.6,0.1-1.1,0.3-1.4,0.5    c-0.4,0.2-0.7,0.4-0.9,0.7c-0.5,0.5-1.2,1.8-2.1,4c-1,2.2-2.2,5.2-3.6,9.2l-3.2,8.5c-1,2.8-1.8,4.5-2.4,5.3    c-0.6,0.7-1.3,1.1-2.1,1.1c-0.6,0-1.1-0.2-1.5-0.6c-0.4-0.4-0.6-0.9-0.6-1.5c0-0.5,0.1-0.9,0.3-1.2s0.5-0.6,1-0.7    c0.5,0.3,0.9,0.6,1.3,0.8s0.7,0.3,0.9,0.3c0.3,0,0.7-0.2,1-0.7c0.3-0.5,0.8-1.5,1.3-3L326.1,45.7z"/>
	</g>
	<g>
		<path fill="#231F20" d="M178.2,82.4v-0.7c2.1-0.2,3.5-0.6,4.2-1.3c0.7-0.7,1.1-2.1,1.1-4.2V60.2c0-1.9-0.3-3.1-1-3.8    c-0.7-0.7-1.9-1.1-3.8-1.4v-0.7c2.2,0,4.6-0.1,7.2-0.1c2.5,0,4-0.1,4.3-0.1c5.8,0,10.4,1.3,13.7,3.8c3.3,2.6,5,6.1,5,10.5    c0,4.4-1.6,7.8-4.7,10.3c-3.2,2.5-7.5,3.7-13.1,3.7c-1.1,0-3,0-5.9,0C182.2,82.4,179.9,82.4,178.2,82.4z M187.3,75    c0,2.6,0.4,4.3,1.3,5.2c0.8,0.9,2.4,1.3,4.7,1.3c3.1,0,5.7-1.1,7.7-3.4c2-2.3,3-5.2,3-8.9c0-4.4-1.4-7.9-4.3-10.4s-6.9-3.8-12-3.8    h-0.4V75z"/>
	</g>
	<g>
		<path fill="#231F20" d="M227.5,81.2l0,0.6c-0.9,0.3-1.7,0.5-2.5,0.6s-1.4,0.2-1.9,0.2c-0.8,0-1.4-0.2-1.8-0.6    c-0.4-0.4-0.6-1-0.7-1.9c-0.9,0.8-1.8,1.5-2.6,1.9s-1.7,0.6-2.4,0.6c-1.2,0-2.2-0.4-3-1.2c-0.8-0.8-1.2-1.9-1.2-3.1    c0-0.3,0-0.7,0.1-1c0-0.3,0.1-0.6,0.2-0.9l9.1-4.3c0-0.1,0-0.3,0-0.5c0-0.2,0-0.4,0-0.5c0-1.9-0.3-3.2-0.9-4.1    c-0.6-0.8-1.6-1.2-3-1.2c-1,0-1.7,0.2-2.2,0.5s-0.7,0.8-0.7,1.6v0.1l0,1.5l-1.7,0.1c-0.1,0-0.1,0-0.2,0c-0.1,0-0.2,0-0.2,0    c-0.3,0-0.5,0-0.7-0.1c-0.1-0.1-0.2-0.2-0.2-0.4c0-0.2,0.2-0.6,0.5-1s0.8-0.8,1.4-1.4c1.2-1,2.3-1.8,3.4-2.3    c1-0.6,1.9-0.8,2.6-0.8c1.6,0,2.9,0.6,3.7,1.7c0.8,1.1,1.2,2.9,1.2,5.3v0.4l-0.1,5.6v0.4c0,1.5,0.3,2.6,0.8,3.1    C225.1,80.5,226.1,80.9,227.5,81.2z M220.7,73.1l-5.7,2.9c-0.1,0.4-0.2,0.7-0.2,0.9c0,0.2-0.1,0.3-0.1,0.5c0,1.1,0.3,1.9,0.8,2.5    s1.2,0.9,2.1,0.9c0.5,0,1-0.1,1.5-0.4c0.5-0.3,1-0.7,1.5-1.2L220.7,73.1z"/>
		<path fill="#231F20" d="M230.8,78.6l0.2-12.1h-2.7l-0.2-0.2l5.9-5.9l0.4,0.1l-0.2,3.9h6.6v2.1h-6.5l0,7.3c0,2.1,0.1,3.5,0.2,4.2    c0.1,0.7,0.3,1.2,0.6,1.6c0.3,0.4,0.8,0.7,1.4,1c0.6,0.2,1.3,0.3,2.2,0.3c0.4,0,0.7,0,1.1-0.1c0.4,0,0.8-0.1,1.3-0.2l0.2,0.7    c-1.2,0.4-2.3,0.8-3.4,1c-1,0.2-2,0.3-2.9,0.3c-1.4,0-2.5-0.3-3.1-0.9c-0.6-0.6-0.9-1.6-0.9-3V78.6z"/>
		<path fill="#231F20" d="M258.7,81.2l0,0.6c-0.9,0.3-1.7,0.5-2.5,0.6s-1.4,0.2-1.9,0.2c-0.8,0-1.4-0.2-1.8-0.6    c-0.4-0.4-0.6-1-0.7-1.9c-0.9,0.8-1.8,1.5-2.6,1.9s-1.7,0.6-2.4,0.6c-1.2,0-2.2-0.4-3-1.2c-0.8-0.8-1.2-1.9-1.2-3.1    c0-0.3,0-0.7,0.1-1c0-0.3,0.1-0.6,0.2-0.9l9.1-4.3c0-0.1,0-0.3,0-0.5c0-0.2,0-0.4,0-0.5c0-1.9-0.3-3.2-0.9-4.1    c-0.6-0.8-1.6-1.2-3-1.2c-1,0-1.7,0.2-2.2,0.5s-0.7,0.8-0.7,1.6v0.1l0,1.5l-1.7,0.1c-0.1,0-0.1,0-0.2,0c-0.1,0-0.2,0-0.2,0    c-0.3,0-0.5,0-0.7-0.1c-0.1-0.1-0.2-0.2-0.2-0.4c0-0.2,0.2-0.6,0.5-1s0.8-0.8,1.4-1.4c1.2-1,2.3-1.8,3.4-2.3    c1-0.6,1.9-0.8,2.6-0.8c1.6,0,2.9,0.6,3.7,1.7c0.8,1.1,1.2,2.9,1.2,5.3v0.4l-0.1,5.6v0.4c0,1.5,0.3,2.6,0.8,3.1    C256.2,80.5,257.2,80.9,258.7,81.2z M251.8,73.1l-5.7,2.9c-0.1,0.4-0.2,0.7-0.2,0.9c0,0.2-0.1,0.3-0.1,0.5c0,1.1,0.3,1.9,0.8,2.5    s1.2,0.9,2.1,0.9c0.5,0,1-0.1,1.5-0.4c0.5-0.3,1-0.7,1.5-1.2L251.8,73.1z"/>
	</g>
	<g>
	</g>
	<g>
		<path fill="#231F20" d="M266.7,89.1c1.2-0.6,2.2-1.3,3.1-2.1c0.8-0.8,1.5-1.6,2-2.6c0.5-0.9,0.8-2,1-3.2c0.2-1.3,0.3-3.1,0.3-5.3    V60.5c0-2-0.4-3.3-1.1-4.1s-2.2-1.2-4.2-1.3v-0.7c0.9,0,1.9,0,2.9,0.1c1,0,2.5,0,4.4,0c1.9,0,3.3,0,4.3,0c0.9,0,1.8,0,2.6-0.1v0.7    c-2,0.2-3.3,0.7-4,1.4c-0.7,0.7-1,2-1,4v15.2c0,2.9-0.2,5-0.5,6.2c-0.3,1.3-0.9,2.4-1.6,3.3c-0.8,1-1.9,1.8-3.1,2.6    c-1.3,0.8-2.7,1.4-4.5,2L266.7,89.1z"/>
	</g>
	<g>
		<path fill="#231F20" d="M282.3,73.1c0-2.7,1-5,2.9-6.8c1.9-1.8,4.3-2.7,7.2-2.7c3.1,0,5.5,0.9,7.3,2.6c1.8,1.7,2.7,4,2.7,6.9    c0,2.7-1,5-2.9,6.8c-1.9,1.8-4.3,2.7-7.2,2.7c-3,0-5.5-0.9-7.3-2.6S282.3,76,282.3,73.1z M292.4,64.4c-1.9,0-3.4,0.8-4.5,2.3    c-1.1,1.6-1.7,3.7-1.7,6.3c0,2.5,0.6,4.6,1.8,6.2c1.2,1.6,2.7,2.4,4.5,2.4c1.9,0,3.4-0.8,4.6-2.3c1.1-1.5,1.7-3.6,1.7-6.3    c0-2.5-0.6-4.6-1.8-6.2C295.7,65.2,294.2,64.4,292.4,64.4z"/>
		<path fill="#231F20" d="M306.8,76.4l0-6.6c0-0.1,0-0.2,0-0.3c0-2.9-1-4.4-3-4.4h-0.2v-0.7c1.1-0.1,2.2-0.2,3.2-0.3    c1.1-0.1,2.1-0.2,3.2-0.3c0,0.8,0,1.6-0.1,2.3c0,0.7,0,1.5,0,2.2l0.2,6.9c0,1.9,0.4,3.2,1.1,4.1c0.7,0.8,1.7,1.3,3.2,1.3    c0.8,0,1.6-0.2,2.4-0.5s1.5-0.8,2.2-1.4l0.1-8.9v-0.4c0-1.8-0.3-2.9-0.8-3.5c-0.5-0.5-1.6-0.8-3.2-0.8h-0.2v-0.7    c0.5-0.1,1.2-0.1,2.1-0.2c2.5-0.2,4.4-0.4,5.5-0.5c0,1.2-0.1,2.2-0.1,3.1c0,0.9,0,1.6,0,2l-0.1,8.2V78c0,1.1,0.1,1.8,0.3,2.2    c0.2,0.3,0.6,0.5,1.2,0.5c0.2,0,0.5,0,0.8-0.1s0.7-0.1,1.1-0.2l0.2,0.7c-0.5,0.1-1.2,0.3-2.2,0.5c-2.2,0.5-3.7,0.9-4.7,1.2v-3.1    c-1.4,1-2.7,1.8-4,2.3c-1.2,0.5-2.4,0.7-3.6,0.7c-1.5,0-2.6-0.5-3.3-1.5C307.2,80.1,306.8,78.5,306.8,76.4z"/>
		<path fill="#231F20" d="M326.5,82.4v-0.7c1-0.1,1.7-0.4,2.1-0.9c0.4-0.5,0.5-1.5,0.5-3.2l0-7.3c0-1-0.1-1.7-0.3-2.2    c-0.2-0.5-0.5-0.9-1-1.2l-0.8-0.6v-0.5l5-2.3l0.3,0.2l-0.1,4.8c0.9-1.5,1.8-2.7,2.8-3.5s2.1-1.2,3.2-1.2c0.6,0,1.1,0.2,1.5,0.5    c0.4,0.3,0.6,0.7,0.6,1.2c0,0.5-0.2,0.9-0.5,1.4s-0.9,0.9-1.6,1.3c-0.5-0.4-1.1-0.8-1.5-1c-0.5-0.2-0.9-0.4-1.2-0.4    c-0.9,0-1.7,0.5-2.3,1.6s-0.9,2.5-0.9,4.2v4.8c0,1.8,0.3,2.9,0.8,3.3c0.5,0.5,1.7,0.8,3.5,0.9v0.7c-0.6,0-1.3,0-2-0.1    c-0.7,0-1.8,0-3.2,0c-1.4,0-2.4,0-3,0C327.7,82.3,327.1,82.4,326.5,82.4z"/>
		<path fill="#231F20" d="M341.9,66.1v-0.3l5.2-2.5l0.4,0.2l-0.4,3.1c1.5-1.1,2.9-1.9,4.1-2.4s2.4-0.8,3.4-0.8    c1.7,0,2.9,0.5,3.7,1.6c0.8,1,1.2,2.7,1.2,5v7.8c0,1.6,0.2,2.6,0.5,3c0.4,0.3,1.2,0.6,2.4,0.8v0.7c-0.5,0-1.1,0-1.7-0.1    c-0.6,0-1.6,0-2.9,0c-1.3,0-2.2,0-2.9,0c-0.6,0-1.2,0-1.8,0.1l0-0.7c1.4-0.1,2.2-0.4,2.6-0.8s0.6-1.5,0.6-3.3V72    c0-2.3-0.3-3.9-1-4.9c-0.7-0.9-1.8-1.4-3.4-1.4c-0.8,0-1.6,0.2-2.4,0.5c-0.8,0.3-1.6,0.8-2.4,1.4v10.5c0,1.5,0.2,2.4,0.6,2.8    s1.3,0.6,2.8,0.8v0.7c-0.6,0-1.2,0-1.8-0.1c-0.7,0-1.7,0-3,0c-1.3,0-2.3,0-2.9,0c-0.7,0-1.2,0-1.8,0.1v-0.7    c1.3-0.1,2.1-0.4,2.5-0.9c0.4-0.4,0.6-1.4,0.6-2.8v-8.2c0-0.9-0.1-1.5-0.3-2c-0.2-0.5-0.6-0.9-1.1-1.2L341.9,66.1z"/>
		<path fill="#231F20" d="M380.4,81.2l0,0.6c-0.9,0.3-1.7,0.5-2.5,0.6s-1.4,0.2-1.9,0.2c-0.8,0-1.4-0.2-1.8-0.6    c-0.4-0.4-0.6-1-0.7-1.9c-0.9,0.8-1.8,1.5-2.6,1.9s-1.7,0.6-2.4,0.6c-1.2,0-2.2-0.4-3-1.2c-0.8-0.8-1.2-1.9-1.2-3.1    c0-0.3,0-0.7,0.1-1c0-0.3,0.1-0.6,0.2-0.9l9.1-4.3c0-0.1,0-0.3,0-0.5c0-0.2,0-0.4,0-0.5c0-1.9-0.3-3.2-0.9-4.1    c-0.6-0.8-1.6-1.2-3-1.2c-1,0-1.7,0.2-2.2,0.5s-0.7,0.8-0.7,1.6v0.1l0,1.5l-1.7,0.1c-0.1,0-0.1,0-0.2,0c-0.1,0-0.2,0-0.2,0    c-0.3,0-0.5,0-0.7-0.1c-0.1-0.1-0.2-0.2-0.2-0.4c0-0.2,0.2-0.6,0.5-1s0.8-0.8,1.4-1.4c1.2-1,2.3-1.8,3.4-2.3    c1-0.6,1.9-0.8,2.6-0.8c1.6,0,2.9,0.6,3.7,1.7c0.8,1.1,1.2,2.9,1.2,5.3v0.4l-0.1,5.6v0.4c0,1.5,0.3,2.6,0.8,3.1    C377.9,80.5,378.9,80.9,380.4,81.2z M373.5,73.1l-5.7,2.9c-0.1,0.4-0.2,0.7-0.2,0.9c0,0.2-0.1,0.3-0.1,0.5c0,1.1,0.3,1.9,0.8,2.5    s1.2,0.9,2.1,0.9c0.5,0,1-0.1,1.5-0.4c0.5-0.3,1-0.7,1.5-1.2L373.5,73.1z"/>
		<path fill="#231F20" d="M380.8,82.4v-0.7c1.4-0.1,2.3-0.4,2.7-1c0.4-0.5,0.7-1.8,0.7-3.8V59c0-0.9-0.1-1.7-0.3-2.2    c-0.2-0.5-0.5-1-1-1.4l-0.6-0.6v-0.3l4.7-1.8l0.4,0.2c0,0.5,0,1.2,0,2c0,1.7-0.1,2.8-0.1,3.3v19.6c0,1.7,0.2,2.7,0.7,3.1    c0.5,0.4,1.3,0.7,2.7,0.7v0.7c-0.6,0-1.2,0-1.9-0.1c-0.7,0-1.7,0-3.1,0c-1.3,0-2.3,0-3,0C382,82.3,381.4,82.4,380.8,82.4z"/>
	</g>
</g>
<g>
	<g>
	</g>
	<g>
	</g>
	<g>
		<path fill="#FAED20" d="M68.2,26.3c17.2,0,32,10.3,38.6,25l0.4,0.9l-0.4,0.9c-6.7,14.7-21.4,25-38.6,25c-17.2,0-32-10.3-38.6-25    l-0.4-0.9l0.4-0.9C36.3,36.5,51.1,26.3,68.2,26.3"/>
		<path fill="#FFFFFF" d="M68.2,30.5c-15.1,0-28.2,8.8-34.4,21.7C40,65,53.1,73.8,68.2,73.8c15.1,0,28.2-8.8,34.4-21.7    C96.4,39.3,83.4,30.5,68.2,30.5"/>
		<path fill="#0B57A3" d="M46.8,52.2c0-11.9,9.6-21.5,21.4-21.5c11.8,0,21.4,9.6,21.4,21.5c0,11.9-9.6,21.5-21.4,21.5    C56.4,73.7,46.8,64,46.8,52.2"/>
	</g>
	<g>
		<defs>
			<path id="SVGID_1_" d="M36.4,20.2c-9.1,6-16.4,14.5-20.9,24.5h17.9C41,33.5,53.8,26.3,68.2,26.3c17.2,0,32,10.3,38.6,25l0.2,0.5     c0,0.1,0.1,0.3,0.1,0.4c-1.4,3.8-4.1,7.5-4.1,7.5l23.1,0V36.1c0,0-3,2.7-6.4,4.4c-0.7-0.8-1-1.6-1.9-2.5     c-5.1-6.9-10.8-13.1-17.9-17.8c-9.5-6.2-20.5-9.5-31.8-9.5C56.9,10.6,45.9,13.9,36.4,20.2"/>
		</defs>
		<clipPath id="SVGID_2_">
			<use xlink:href="#SVGID_1_" overflow="visible"/>
		</clipPath>
		
			<linearGradient id="SVGID_3_" gradientUnits="userSpaceOnUse" x1="-403.0283" y1="387.4941" x2="-402.1365" y2="387.4941" gradientTransform="matrix(120.755 0 0 -120.755 48685.7695 46827.0117)">
			<stop offset="0" style="stop-color:#8DC63F"/>
			<stop offset="0.2304" style="stop-color:#71AD3A"/>
			<stop offset="0.7249" style="stop-color:#2A6E2F"/>
			<stop offset="1" style="stop-color:#004928"/>
		</linearGradient>
		<rect x="15.5" y="10.6" clip-path="url(#SVGID_2_)" fill="url(#SVGID_3_)" width="110.7" height="49.1"/>
	</g>
	<g>
		<defs>
			<path id="SVGID_4_" d="M10.2,68.2c0,0,3-2.7,6.4-4.4c0.7,0.8,1,1.6,1.9,2.6c5.1,6.9,10.8,13.1,17.9,17.8     c9.5,6.2,20.5,9.5,31.8,9.5c11.4,0,22.4-3.3,31.8-9.5c9.1-6,16.4-14.5,20.9-24.5h-17.9C95.4,70.8,82.6,78,68.2,78     c-17.2,0-32-10.3-38.6-25l-0.2-0.5c0-0.1-0.1-0.2-0.1-0.4c1.5-3.9,4.1-7.5,4.1-7.5H10.2V68.2z"/>
		</defs>
		<clipPath id="SVGID_5_">
			<use xlink:href="#SVGID_4_" overflow="visible"/>
		</clipPath>
		
			<linearGradient id="SVGID_6_" gradientUnits="userSpaceOnUse" x1="-401.2891" y1="391.4492" x2="-400.3977" y2="391.4492" gradientTransform="matrix(-122.2709 0 0 122.2709 -48946.875 -47793.7656)">
			<stop offset="0" style="stop-color:#8DC63F"/>
			<stop offset="0.2304" style="stop-color:#71AD3A"/>
			<stop offset="0.7249" style="stop-color:#2A6E2F"/>
			<stop offset="1" style="stop-color:#004928"/>
		</linearGradient>
		<rect x="10.2" y="44.6" clip-path="url(#SVGID_5_)" fill="url(#SVGID_6_)" width="110.7" height="49.1"/>
	</g>
</g>
<g>
	<path fill="#231F20" d="M229,4h0.8l3.3,7.5H232l-1-2.2h-3.2l-0.9,2.2h-1.1L229,4z M230.5,8.3l-1.2-2.7l-1.1,2.7H230.5z"/>
	<path fill="#231F20" d="M237,14V6.6h1.7c0.9,0,1.6,0.2,2,0.7c0.5,0.4,0.7,1,0.7,1.8c0,0.7-0.2,1.4-0.7,1.8c-0.5,0.5-1,0.7-1.7,0.7   c-0.3,0-0.7-0.1-1-0.2V14H237z M238.7,7.5H238v3c0.3,0.2,0.6,0.2,0.9,0.2c0.5,0,0.8-0.2,1.1-0.5s0.4-0.7,0.4-1.2   c0-0.3-0.1-0.6-0.2-0.9s-0.3-0.4-0.6-0.5C239.5,7.5,239.2,7.5,238.7,7.5z"/>
	<path fill="#231F20" d="M246.8,9.1h-3.5c0,0.5,0.2,0.8,0.5,1.1c0.3,0.3,0.7,0.4,1.1,0.4c0.6,0,1.2-0.2,1.8-0.6v1   c-0.3,0.2-0.6,0.3-0.9,0.4c-0.3,0.1-0.6,0.1-1,0.1c-0.5,0-1-0.1-1.3-0.3s-0.6-0.5-0.8-0.9c-0.2-0.4-0.3-0.8-0.3-1.3   c0-0.8,0.2-1.4,0.6-1.8c0.4-0.5,1-0.7,1.7-0.7c0.7,0,1.2,0.2,1.6,0.7s0.6,1.1,0.6,1.8V9.1z M243.3,8.5h2.5c0-0.4-0.1-0.7-0.3-0.9   c-0.2-0.2-0.5-0.3-0.8-0.3s-0.6,0.1-0.9,0.3C243.5,7.9,243.4,8.2,243.3,8.5z"/>
	<path fill="#231F20" d="M252,9.1h-3.5c0,0.5,0.2,0.8,0.5,1.1c0.3,0.3,0.7,0.4,1.1,0.4c0.6,0,1.2-0.2,1.8-0.6v1   c-0.3,0.2-0.6,0.3-0.9,0.4c-0.3,0.1-0.6,0.1-1,0.1c-0.5,0-1-0.1-1.3-0.3s-0.6-0.5-0.8-0.9c-0.2-0.4-0.3-0.8-0.3-1.3   c0-0.8,0.2-1.4,0.6-1.8c0.4-0.5,1-0.7,1.7-0.7c0.7,0,1.2,0.2,1.6,0.7S252,8.2,252,9V9.1z M248.6,8.5h2.5c0-0.4-0.1-0.7-0.3-0.9   c-0.2-0.2-0.5-0.3-0.8-0.3s-0.6,0.1-0.9,0.3C248.8,7.9,248.6,8.2,248.6,8.5z"/>
	<path fill="#231F20" d="M254.1,6.6v1.1l0.1-0.1c0.5-0.8,0.9-1.1,1.4-1.1c0.4,0,0.8,0.2,1.1,0.6l-0.5,0.9c-0.3-0.3-0.7-0.5-0.9-0.5   c-0.3,0-0.6,0.2-0.8,0.5s-0.3,0.7-0.3,1.1v2.6h-1V6.6H254.1z"/>
	<path fill="#231F20" d="M256.3,8.6h2.7v1h-2.7V8.6z"/>
	<path fill="#231F20" d="M261.1,6.6v1.1l0.1-0.1c0.5-0.8,0.9-1.1,1.4-1.1c0.4,0,0.8,0.2,1.1,0.6l-0.5,0.9c-0.3-0.3-0.7-0.5-0.9-0.5   c-0.3,0-0.6,0.2-0.8,0.5s-0.3,0.7-0.3,1.1v2.6h-1V6.6H261.1z"/>
	<path fill="#231F20" d="M268.4,9.1h-3.5c0,0.5,0.2,0.8,0.5,1.1c0.3,0.3,0.7,0.4,1.1,0.4c0.6,0,1.2-0.2,1.8-0.6v1   c-0.3,0.2-0.6,0.3-0.9,0.4c-0.3,0.1-0.6,0.1-1,0.1c-0.5,0-1-0.1-1.3-0.3s-0.6-0.5-0.8-0.9c-0.2-0.4-0.3-0.8-0.3-1.3   c0-0.8,0.2-1.4,0.6-1.8c0.4-0.5,1-0.7,1.7-0.7c0.7,0,1.2,0.2,1.6,0.7s0.6,1.1,0.6,1.8V9.1z M264.9,8.5h2.5c0-0.4-0.1-0.7-0.3-0.9   c-0.2-0.2-0.5-0.3-0.8-0.3s-0.6,0.1-0.9,0.3C265.2,7.9,265,8.2,264.9,8.5z"/>
	<path fill="#231F20" d="M272.3,6.6h1.1l-2.2,5h-0.3l-2.2-5h1.1l1.3,3L272.3,6.6z"/>
	<path fill="#231F20" d="M274.6,4.5c0.2,0,0.3,0.1,0.4,0.2c0.1,0.1,0.2,0.2,0.2,0.4c0,0.2-0.1,0.3-0.2,0.4c-0.1,0.1-0.3,0.2-0.4,0.2   c-0.1,0-0.3-0.1-0.4-0.2c-0.1-0.1-0.2-0.3-0.2-0.4c0-0.2,0.1-0.3,0.2-0.4C274.3,4.6,274.4,4.5,274.6,4.5z M274.1,6.6h1v4.9h-1V6.6z   "/>
	<path fill="#231F20" d="M280.7,9.1h-3.5c0,0.5,0.2,0.8,0.5,1.1c0.3,0.3,0.7,0.4,1.1,0.4c0.6,0,1.2-0.2,1.8-0.6v1   c-0.3,0.2-0.6,0.3-0.9,0.4c-0.3,0.1-0.6,0.1-1,0.1c-0.5,0-1-0.1-1.3-0.3s-0.6-0.5-0.8-0.9c-0.2-0.4-0.3-0.8-0.3-1.3   c0-0.8,0.2-1.4,0.6-1.8c0.4-0.5,1-0.7,1.7-0.7c0.7,0,1.2,0.2,1.6,0.7s0.6,1.1,0.6,1.8V9.1z M277.2,8.5h2.5c0-0.4-0.1-0.7-0.3-0.9   c-0.2-0.2-0.5-0.3-0.8-0.3s-0.6,0.1-0.9,0.3C277.4,7.9,277.3,8.2,277.2,8.5z"/>
	<path fill="#231F20" d="M287.7,6.6h1l-2.2,5h-0.3l-1.5-3.4l-1.4,3.4h-0.3l-2.2-5h1l1.3,3l1.3-3h0.7l1.2,3L287.7,6.6z"/>
	<path fill="#231F20" d="M293.4,9.1h-3.5c0,0.5,0.2,0.8,0.5,1.1c0.3,0.3,0.7,0.4,1.1,0.4c0.6,0,1.2-0.2,1.8-0.6v1   c-0.3,0.2-0.6,0.3-0.9,0.4c-0.3,0.1-0.6,0.1-1,0.1c-0.5,0-1-0.1-1.3-0.3s-0.6-0.5-0.8-0.9C289.1,10,289,9.5,289,9   c0-0.8,0.2-1.4,0.6-1.8c0.4-0.5,1-0.7,1.7-0.7c0.7,0,1.2,0.2,1.6,0.7s0.6,1.1,0.6,1.8V9.1z M290,8.5h2.5c0-0.4-0.1-0.7-0.3-0.9   c-0.2-0.2-0.5-0.3-0.8-0.3s-0.6,0.1-0.9,0.3C290.2,7.9,290,8.2,290,8.5z"/>
	<path fill="#231F20" d="M297.7,4h1v7.5h-2.1c-0.7,0-1.3-0.2-1.7-0.7c-0.4-0.5-0.6-1.1-0.6-1.9c0-0.7,0.2-1.3,0.7-1.8   c0.5-0.5,1-0.7,1.7-0.7c0.3,0,0.7,0.1,1.1,0.2V4z M297.7,10.7V7.6c-0.3-0.2-0.6-0.2-0.9-0.2c-0.5,0-0.9,0.2-1.2,0.5   s-0.4,0.7-0.4,1.3c0,0.5,0.1,0.9,0.4,1.2c0.2,0.2,0.3,0.3,0.5,0.3c0.2,0.1,0.5,0.1,0.9,0.1H297.7z"/>
	<path fill="#231F20" d="M305.7,6.6c0.7,0,1.4,0.2,1.9,0.7c0.5,0.5,0.7,1.1,0.7,1.8c0,0.7-0.3,1.3-0.8,1.8c-0.5,0.5-1.1,0.7-1.9,0.7   c-0.7,0-1.4-0.2-1.9-0.7c-0.5-0.5-0.7-1.1-0.7-1.8c0-0.7,0.3-1.3,0.8-1.8C304.3,6.8,305,6.6,305.7,6.6z M305.7,7.4   c-0.5,0-0.9,0.2-1.2,0.5c-0.3,0.3-0.4,0.7-0.4,1.2c0,0.5,0.2,0.9,0.5,1.2c0.3,0.3,0.7,0.4,1.2,0.4c0.5,0,0.9-0.2,1.2-0.5   c0.3-0.3,0.5-0.7,0.5-1.2c0-0.5-0.2-0.9-0.5-1.2S306.2,7.4,305.7,7.4z"/>
	<path fill="#231F20" d="M309.4,14V6.6h1.7c0.9,0,1.6,0.2,2,0.7c0.5,0.4,0.7,1,0.7,1.8c0,0.7-0.2,1.4-0.7,1.8   c-0.5,0.5-1,0.7-1.7,0.7c-0.3,0-0.7-0.1-1-0.2V14H309.4z M311,7.5h-0.7v3c0.3,0.2,0.6,0.2,0.9,0.2c0.5,0,0.8-0.2,1.1-0.5   s0.4-0.7,0.4-1.2c0-0.3-0.1-0.6-0.2-0.9s-0.3-0.4-0.6-0.5C311.8,7.5,311.5,7.5,311,7.5z"/>
	<path fill="#231F20" d="M319.1,9.1h-3.5c0,0.5,0.2,0.8,0.5,1.1c0.3,0.3,0.7,0.4,1.1,0.4c0.6,0,1.2-0.2,1.8-0.6v1   c-0.3,0.2-0.6,0.3-0.9,0.4c-0.3,0.1-0.6,0.1-1,0.1c-0.5,0-1-0.1-1.3-0.3s-0.6-0.5-0.8-0.9c-0.2-0.4-0.3-0.8-0.3-1.3   c0-0.8,0.2-1.4,0.6-1.8c0.4-0.5,1-0.7,1.7-0.7c0.7,0,1.2,0.2,1.6,0.7s0.6,1.1,0.6,1.8V9.1z M315.6,8.5h2.5c0-0.4-0.1-0.7-0.3-0.9   c-0.2-0.2-0.5-0.3-0.8-0.3s-0.6,0.1-0.9,0.3C315.9,7.9,315.7,8.2,315.6,8.5z"/>
	<path fill="#231F20" d="M321.1,6.6v0.6c0.4-0.5,0.9-0.7,1.5-0.7c0.3,0,0.6,0.1,0.9,0.2c0.3,0.2,0.5,0.4,0.6,0.7   c0.1,0.3,0.2,0.7,0.2,1.3v2.8h-1V8.7c0-0.5-0.1-0.9-0.2-1.1c-0.2-0.2-0.4-0.3-0.8-0.3c-0.5,0-0.9,0.2-1.2,0.7v3.5h-1V6.6H321.1z"/>
	<path fill="#231F20" d="M325.4,8.6h2.7v1h-2.7V8.6z"/>
	<path fill="#231F20" d="M332.2,8.5v2.1c0,0.2,0.1,0.3,0.2,0.3c0.1,0,0.3-0.1,0.6-0.3v0.6c-0.2,0.1-0.4,0.2-0.5,0.3   c-0.1,0.1-0.3,0.1-0.4,0.1c-0.4,0-0.7-0.2-0.7-0.5c-0.4,0.3-0.9,0.5-1.3,0.5c-0.3,0-0.6-0.1-0.9-0.3c-0.2-0.2-0.3-0.5-0.3-0.9   c0-0.3,0.1-0.6,0.3-0.8c0.2-0.2,0.5-0.4,0.9-0.6l1.2-0.4V8.3c0-0.6-0.3-0.9-0.9-0.9c-0.5,0-1,0.3-1.6,0.8V7.2   c0.4-0.4,0.9-0.7,1.6-0.7c0.5,0,1,0.1,1.3,0.4c0.1,0.1,0.2,0.2,0.3,0.4c0.1,0.1,0.1,0.3,0.2,0.4C332.2,7.9,332.2,8.1,332.2,8.5z    M331.3,10.5V9.1l-0.7,0.3c-0.3,0.1-0.6,0.3-0.7,0.4c-0.1,0.1-0.2,0.3-0.2,0.5c0,0.2,0.1,0.4,0.2,0.5s0.3,0.2,0.5,0.2   C330.7,10.9,331,10.8,331.3,10.5z"/>
	<path fill="#231F20" d="M337.5,10.4v1c-0.5,0.2-1,0.3-1.4,0.3c-0.8,0-1.4-0.2-1.8-0.7s-0.7-1.1-0.7-1.8c0-0.8,0.2-1.4,0.7-1.9   c0.4-0.5,1-0.7,1.8-0.7c0.3,0,0.5,0,0.7,0.1c0.2,0,0.5,0.1,0.7,0.3v1c-0.5-0.3-0.9-0.5-1.4-0.5c-0.4,0-0.8,0.2-1.1,0.5   c-0.3,0.3-0.4,0.7-0.4,1.2c0,0.5,0.2,0.9,0.5,1.2s0.7,0.4,1.2,0.4C336.6,10.7,337,10.6,337.5,10.4z"/>
	<path fill="#231F20" d="M342.3,10.4v1c-0.5,0.2-1,0.3-1.4,0.3c-0.8,0-1.4-0.2-1.8-0.7s-0.7-1.1-0.7-1.8c0-0.8,0.2-1.4,0.7-1.9   c0.4-0.5,1-0.7,1.8-0.7c0.3,0,0.5,0,0.7,0.1c0.2,0,0.5,0.1,0.7,0.3v1c-0.5-0.3-0.9-0.5-1.4-0.5c-0.4,0-0.8,0.2-1.1,0.5   c-0.3,0.3-0.4,0.7-0.4,1.2c0,0.5,0.2,0.9,0.5,1.2s0.7,0.4,1.2,0.4C341.4,10.7,341.8,10.6,342.3,10.4z"/>
	<path fill="#231F20" d="M347.6,9.1h-3.5c0,0.5,0.2,0.8,0.5,1.1c0.3,0.3,0.7,0.4,1.1,0.4c0.6,0,1.2-0.2,1.8-0.6v1   c-0.3,0.2-0.6,0.3-0.9,0.4c-0.3,0.1-0.6,0.1-1,0.1c-0.5,0-1-0.1-1.3-0.3s-0.6-0.5-0.8-0.9c-0.2-0.4-0.3-0.8-0.3-1.3   c0-0.8,0.2-1.4,0.6-1.8c0.4-0.5,1-0.7,1.7-0.7c0.7,0,1.2,0.2,1.6,0.7s0.6,1.1,0.6,1.8V9.1z M344.2,8.5h2.5c0-0.4-0.1-0.7-0.3-0.9   c-0.2-0.2-0.5-0.3-0.8-0.3s-0.6,0.1-0.9,0.3C344.4,7.9,344.2,8.2,344.2,8.5z"/>
	<path fill="#231F20" d="M348.4,11.2v-1.1c0.3,0.2,0.6,0.4,0.8,0.5c0.3,0.1,0.5,0.2,0.7,0.2c0.2,0,0.4-0.1,0.5-0.2   c0.1-0.1,0.2-0.2,0.2-0.4c0-0.1,0-0.3-0.1-0.4c-0.1-0.1-0.3-0.2-0.6-0.4c-0.6-0.4-1-0.7-1.2-0.9c-0.2-0.2-0.3-0.5-0.3-0.8   c0-0.4,0.1-0.7,0.4-0.9c0.3-0.2,0.7-0.4,1.1-0.4c0.5,0,1,0.1,1.5,0.4v1c-0.6-0.4-1-0.5-1.4-0.5c-0.2,0-0.3,0-0.5,0.1   c-0.1,0.1-0.2,0.2-0.2,0.3c0,0.1,0.1,0.2,0.2,0.3s0.3,0.2,0.6,0.4l0.3,0.2c0.8,0.5,1.2,1,1.2,1.5c0,0.4-0.2,0.7-0.5,1   c-0.3,0.3-0.7,0.4-1.2,0.4c-0.3,0-0.6,0-0.8-0.1C349.1,11.4,348.8,11.3,348.4,11.2z"/>
	<path fill="#231F20" d="M352.6,11.2v-1.1c0.3,0.2,0.6,0.4,0.8,0.5c0.3,0.1,0.5,0.2,0.7,0.2c0.2,0,0.4-0.1,0.5-0.2   c0.1-0.1,0.2-0.2,0.2-0.4c0-0.1,0-0.3-0.1-0.4c-0.1-0.1-0.3-0.2-0.6-0.4c-0.6-0.4-1-0.7-1.2-0.9c-0.2-0.2-0.3-0.5-0.3-0.8   c0-0.4,0.1-0.7,0.4-0.9c0.3-0.2,0.7-0.4,1.1-0.4c0.5,0,1,0.1,1.5,0.4v1c-0.6-0.4-1-0.5-1.4-0.5c-0.2,0-0.3,0-0.5,0.1   c-0.1,0.1-0.2,0.2-0.2,0.3c0,0.1,0.1,0.2,0.2,0.3s0.3,0.2,0.6,0.4l0.3,0.2c0.8,0.5,1.2,1,1.2,1.5c0,0.4-0.2,0.7-0.5,1   c-0.3,0.3-0.7,0.4-1.2,0.4c-0.3,0-0.6,0-0.8-0.1C353.3,11.4,353,11.3,352.6,11.2z"/>
	<path fill="#231F20" d="M360.4,6.6h1v5.6c0,0.9-0.3,1.5-1,1.8l-0.7-0.7c0.2-0.1,0.4-0.2,0.5-0.4s0.2-0.4,0.2-0.7V6.6z M360.9,4.5   c0.2,0,0.3,0.1,0.4,0.2c0.1,0.1,0.2,0.2,0.2,0.4c0,0.2-0.1,0.3-0.2,0.4s-0.2,0.2-0.4,0.2c-0.2,0-0.3-0.1-0.4-0.2s-0.2-0.3-0.2-0.4   c0-0.2,0.1-0.3,0.2-0.4C360.6,4.6,360.7,4.5,360.9,4.5z"/>
	<path fill="#231F20" d="M365.2,6.6c0.7,0,1.4,0.2,1.9,0.7c0.5,0.5,0.7,1.1,0.7,1.8c0,0.7-0.3,1.3-0.8,1.8c-0.5,0.5-1.1,0.7-1.9,0.7   c-0.7,0-1.4-0.2-1.9-0.7c-0.5-0.5-0.7-1.1-0.7-1.8c0-0.7,0.3-1.3,0.8-1.8C363.8,6.8,364.4,6.6,365.2,6.6z M365.1,7.4   c-0.5,0-0.9,0.2-1.2,0.5c-0.3,0.3-0.4,0.7-0.4,1.2c0,0.5,0.2,0.9,0.5,1.2c0.3,0.3,0.7,0.4,1.2,0.4c0.5,0,0.9-0.2,1.2-0.5   c0.3-0.3,0.5-0.7,0.5-1.2c0-0.5-0.2-0.9-0.5-1.2S365.6,7.4,365.1,7.4z"/>
	<path fill="#231F20" d="M372,11.5v-0.6c-0.2,0.2-0.4,0.4-0.7,0.5c-0.3,0.1-0.5,0.2-0.8,0.2c-0.3,0-0.6-0.1-0.9-0.2   c-0.3-0.2-0.5-0.4-0.6-0.6c-0.1-0.3-0.2-0.7-0.2-1.3V6.6h1v2.8c0,0.5,0.1,0.9,0.2,1.1s0.4,0.3,0.8,0.3c0.5,0,0.9-0.2,1.2-0.7V6.6h1   v4.9H372z"/>
	<path fill="#231F20" d="M375.4,6.6v1.1l0.1-0.1c0.5-0.8,0.9-1.1,1.4-1.1c0.4,0,0.8,0.2,1.1,0.6l-0.5,0.9c-0.3-0.3-0.7-0.5-0.9-0.5   c-0.3,0-0.6,0.2-0.8,0.5s-0.3,0.7-0.3,1.1v2.6h-1V6.6H375.4z"/>
	<path fill="#231F20" d="M379.7,6.6v0.6c0.4-0.5,0.9-0.7,1.5-0.7c0.3,0,0.6,0.1,0.9,0.2c0.3,0.2,0.5,0.4,0.6,0.7   c0.1,0.3,0.2,0.7,0.2,1.3v2.8h-1V8.7c0-0.5-0.1-0.9-0.2-1.1c-0.2-0.2-0.4-0.3-0.8-0.3c-0.5,0-0.9,0.2-1.2,0.7v3.5h-1V6.6H379.7z"/>
	<path fill="#231F20" d="M387.2,8.5v2.1c0,0.2,0.1,0.3,0.2,0.3c0.1,0,0.3-0.1,0.6-0.3v0.6c-0.2,0.1-0.4,0.2-0.5,0.3   c-0.1,0.1-0.3,0.1-0.4,0.1c-0.4,0-0.7-0.2-0.7-0.5c-0.4,0.3-0.9,0.5-1.3,0.5c-0.3,0-0.6-0.1-0.9-0.3c-0.2-0.2-0.3-0.5-0.3-0.9   c0-0.3,0.1-0.6,0.3-0.8c0.2-0.2,0.5-0.4,0.9-0.6l1.2-0.4V8.3c0-0.6-0.3-0.9-0.9-0.9c-0.5,0-1,0.3-1.6,0.8V7.2   c0.4-0.4,0.9-0.7,1.6-0.7c0.5,0,1,0.1,1.3,0.4c0.1,0.1,0.2,0.2,0.3,0.4c0.1,0.1,0.1,0.3,0.2,0.4C387.2,7.9,387.2,8.1,387.2,8.5z    M386.3,10.5V9.1l-0.7,0.3c-0.3,0.1-0.6,0.3-0.7,0.4c-0.1,0.1-0.2,0.3-0.2,0.5c0,0.2,0.1,0.4,0.2,0.5s0.3,0.2,0.5,0.2   C385.7,10.9,386,10.8,386.3,10.5z"/>
	<path fill="#231F20" d="M388.9,4h1v7.5h-1V4z"/>
</g>
<g>
	<path fill="#231F20" d="M146.2,91.3h1v7.5h-1.1V93l-2.3,2.9h-0.2l-2.3-2.9v5.8h-1.1v-7.5h1l2.5,3.1L146.2,91.3z"/>
	<path fill="#231F20" d="M151.7,95.9V98c0,0.2,0.1,0.3,0.2,0.3c0.1,0,0.3-0.1,0.6-0.3v0.6c-0.2,0.1-0.4,0.2-0.5,0.3   s-0.3,0.1-0.4,0.1c-0.4,0-0.7-0.2-0.7-0.5c-0.4,0.3-0.9,0.5-1.3,0.5c-0.3,0-0.6-0.1-0.9-0.3c-0.2-0.2-0.3-0.5-0.3-0.9   c0-0.3,0.1-0.6,0.3-0.8s0.5-0.4,0.9-0.6l1.2-0.4v-0.3c0-0.6-0.3-0.9-0.9-0.9c-0.5,0-1,0.3-1.6,0.8v-1.1c0.4-0.4,0.9-0.7,1.6-0.7   c0.5,0,1,0.1,1.3,0.4c0.1,0.1,0.2,0.2,0.3,0.4c0.1,0.1,0.1,0.3,0.2,0.4C151.7,95.2,151.7,95.5,151.7,95.9z M150.8,97.9v-1.5   l-0.7,0.3c-0.3,0.1-0.6,0.3-0.7,0.4c-0.1,0.1-0.2,0.3-0.2,0.5c0,0.2,0.1,0.4,0.2,0.5s0.3,0.2,0.5,0.2   C150.2,98.3,150.5,98.1,150.8,97.9z"/>
	<path fill="#231F20" d="M153.3,91.3h1v7.5h-1V91.3z M156.5,93.9h1.2l-2.1,2.4l2.5,2.5h-1.3l-2.5-2.5L156.5,93.9z"/>
	<path fill="#231F20" d="M159.1,91.8c0.2,0,0.3,0.1,0.4,0.2c0.1,0.1,0.2,0.2,0.2,0.4c0,0.2-0.1,0.3-0.2,0.4   c-0.1,0.1-0.3,0.2-0.4,0.2c-0.1,0-0.3-0.1-0.4-0.2s-0.2-0.3-0.2-0.4c0-0.2,0.1-0.3,0.2-0.4S158.9,91.8,159.1,91.8z M158.6,93.9h1   v4.9h-1V93.9z"/>
	<path fill="#231F20" d="M162,93.9v0.6c0.4-0.5,0.9-0.7,1.5-0.7c0.3,0,0.6,0.1,0.9,0.2c0.3,0.2,0.5,0.4,0.6,0.7   c0.1,0.3,0.2,0.7,0.2,1.3v2.8h-1V96c0-0.5-0.1-0.9-0.2-1.1c-0.2-0.2-0.4-0.3-0.8-0.3c-0.5,0-0.9,0.2-1.2,0.7v3.5h-1v-4.9H162z"/>
	<path fill="#231F20" d="M166.2,95.6c0-0.5,0.2-0.9,0.6-1.2c0.4-0.3,0.9-0.5,1.6-0.5h2v0.8h-1c0.2,0.2,0.3,0.4,0.4,0.5   c0.1,0.2,0.1,0.3,0.1,0.6c0,0.3-0.1,0.5-0.2,0.8c-0.1,0.2-0.3,0.4-0.6,0.6c-0.2,0.1-0.6,0.2-1.1,0.3c-0.4,0.1-0.6,0.2-0.6,0.4   c0,0.1,0.1,0.2,0.2,0.3c0.1,0.1,0.4,0.1,0.7,0.2c0.6,0.1,1,0.2,1.2,0.3s0.3,0.2,0.5,0.3c0.2,0.2,0.4,0.5,0.4,0.9   c0,0.5-0.2,0.8-0.6,1.1c-0.4,0.3-1,0.4-1.7,0.4c-0.7,0-1.3-0.1-1.7-0.4c-0.4-0.3-0.6-0.7-0.6-1.1c0-0.7,0.4-1.1,1.2-1.3   c-0.3-0.2-0.5-0.4-0.5-0.6c0-0.2,0.1-0.3,0.2-0.4s0.3-0.2,0.6-0.3C166.6,96.9,166.2,96.3,166.2,95.6z M167.8,99.1   c-0.3,0-0.6,0.1-0.8,0.2s-0.3,0.3-0.3,0.5c0,0.5,0.5,0.8,1.4,0.8c0.4,0,0.8-0.1,1-0.2c0.2-0.1,0.4-0.3,0.4-0.5   c0-0.2-0.1-0.4-0.4-0.6C168.7,99.2,168.3,99.1,167.8,99.1z M168,94.8c-0.3,0-0.5,0.1-0.7,0.3c-0.2,0.2-0.3,0.4-0.3,0.6   c0,0.3,0.1,0.5,0.3,0.6c0.2,0.2,0.4,0.3,0.7,0.3c0.3,0,0.5-0.1,0.7-0.3c0.2-0.2,0.3-0.4,0.3-0.6c0-0.3-0.1-0.5-0.3-0.6   S168.3,94.8,168,94.8z"/>
	<path fill="#231F20" d="M177.2,93.9h1.1l-3.5,7.5h-1.1l1.7-3.6l-1.9-3.9h1.1l1.3,2.8L177.2,93.9z"/>
	<path fill="#231F20" d="M181.3,93.9c0.7,0,1.4,0.2,1.9,0.7s0.7,1.1,0.7,1.8c0,0.7-0.3,1.3-0.8,1.8c-0.5,0.5-1.1,0.7-1.9,0.7   c-0.7,0-1.4-0.2-1.9-0.7c-0.5-0.5-0.7-1.1-0.7-1.8c0-0.7,0.3-1.3,0.8-1.8C179.9,94.1,180.6,93.9,181.3,93.9z M181.3,94.8   c-0.5,0-0.9,0.2-1.2,0.5c-0.3,0.3-0.4,0.7-0.4,1.2c0,0.5,0.2,0.9,0.5,1.2c0.3,0.3,0.7,0.4,1.2,0.4c0.5,0,0.9-0.2,1.2-0.5   s0.5-0.7,0.5-1.2c0-0.5-0.2-0.9-0.5-1.2C182.1,94.9,181.7,94.8,181.3,94.8z"/>
	<path fill="#231F20" d="M188.1,98.9v-0.6c-0.2,0.2-0.4,0.4-0.7,0.5s-0.5,0.2-0.8,0.2c-0.3,0-0.6-0.1-0.9-0.2   c-0.3-0.2-0.5-0.4-0.6-0.6c-0.1-0.3-0.2-0.7-0.2-1.3v-2.8h1v2.8c0,0.5,0.1,0.9,0.2,1.1c0.1,0.2,0.4,0.3,0.8,0.3   c0.5,0,0.9-0.2,1.2-0.7v-3.5h1v4.9H188.1z"/>
	<path fill="#231F20" d="M191.5,93.9V95l0.1-0.1c0.5-0.8,0.9-1.1,1.4-1.1c0.4,0,0.8,0.2,1.1,0.6l-0.5,0.9c-0.3-0.3-0.7-0.5-0.9-0.5   c-0.3,0-0.6,0.2-0.8,0.5s-0.3,0.7-0.3,1.1v2.6h-1v-4.9H191.5z"/>
	<path fill="#231F20" d="M201.1,91.3h1v7.5H200c-0.7,0-1.3-0.2-1.7-0.7c-0.4-0.5-0.6-1.1-0.6-1.9c0-0.7,0.2-1.3,0.7-1.8   c0.5-0.5,1-0.7,1.7-0.7c0.3,0,0.7,0.1,1.1,0.2V91.3z M201.1,98v-3.1c-0.3-0.2-0.6-0.2-0.9-0.2c-0.5,0-0.9,0.2-1.2,0.5   c-0.3,0.3-0.4,0.7-0.4,1.3c0,0.5,0.1,0.9,0.4,1.2c0.2,0.2,0.3,0.3,0.5,0.3c0.2,0.1,0.5,0.1,0.9,0.1H201.1z"/>
	<path fill="#231F20" d="M206.5,95.9V98c0,0.2,0.1,0.3,0.2,0.3c0.1,0,0.3-0.1,0.6-0.3v0.6c-0.2,0.1-0.4,0.2-0.5,0.3   s-0.3,0.1-0.4,0.1c-0.4,0-0.7-0.2-0.7-0.5c-0.4,0.3-0.9,0.5-1.3,0.5c-0.3,0-0.6-0.1-0.9-0.3c-0.2-0.2-0.3-0.5-0.3-0.9   c0-0.3,0.1-0.6,0.3-0.8s0.5-0.4,0.9-0.6l1.2-0.4v-0.3c0-0.6-0.3-0.9-0.9-0.9c-0.5,0-1,0.3-1.6,0.8v-1.1c0.4-0.4,0.9-0.7,1.6-0.7   c0.5,0,1,0.1,1.3,0.4c0.1,0.1,0.2,0.2,0.3,0.4c0.1,0.1,0.1,0.3,0.2,0.4C206.5,95.2,206.5,95.5,206.5,95.9z M205.6,97.9v-1.5   l-0.7,0.3c-0.3,0.1-0.6,0.3-0.7,0.4c-0.1,0.1-0.2,0.3-0.2,0.5c0,0.2,0.1,0.4,0.2,0.5s0.3,0.2,0.5,0.2   C205,98.3,205.3,98.1,205.6,97.9z"/>
	<path fill="#231F20" d="M207.4,94.7l1.8-1.8v1h1.6v0.9h-1.6v2.4c0,0.6,0.2,0.8,0.7,0.8c0.3,0,0.7-0.1,1.1-0.3v0.9   c-0.4,0.2-0.8,0.3-1.2,0.3c-0.4,0-0.8-0.1-1.1-0.4c-0.1-0.1-0.2-0.2-0.2-0.3s-0.1-0.2-0.2-0.4s-0.1-0.5-0.1-0.9v-2.2L207.4,94.7   L207.4,94.7z"/>
	<path fill="#231F20" d="M214.9,95.9V98c0,0.2,0.1,0.3,0.2,0.3c0.1,0,0.3-0.1,0.6-0.3v0.6c-0.2,0.1-0.4,0.2-0.5,0.3   s-0.3,0.1-0.4,0.1c-0.4,0-0.7-0.2-0.7-0.5c-0.4,0.3-0.9,0.5-1.3,0.5c-0.3,0-0.6-0.1-0.9-0.3c-0.2-0.2-0.3-0.5-0.3-0.9   c0-0.3,0.1-0.6,0.3-0.8s0.5-0.4,0.9-0.6l1.2-0.4v-0.3c0-0.6-0.3-0.9-0.9-0.9c-0.5,0-1,0.3-1.6,0.8v-1.1c0.4-0.4,0.9-0.7,1.6-0.7   c0.5,0,1,0.1,1.3,0.4c0.1,0.1,0.2,0.2,0.3,0.4c0.1,0.1,0.1,0.3,0.2,0.4C214.8,95.2,214.9,95.5,214.9,95.9z M213.9,97.9v-1.5   l-0.7,0.3c-0.3,0.1-0.6,0.3-0.7,0.4c-0.1,0.1-0.2,0.3-0.2,0.5c0,0.2,0.1,0.4,0.2,0.5s0.3,0.2,0.5,0.2   C213.3,98.3,213.6,98.1,213.9,97.9z"/>
	<path fill="#231F20" d="M223.2,97.7v1c-0.5,0.2-1,0.3-1.4,0.3c-0.8,0-1.4-0.2-1.8-0.7c-0.5-0.5-0.7-1.1-0.7-1.8   c0-0.8,0.2-1.4,0.7-1.9c0.4-0.5,1-0.7,1.8-0.7c0.3,0,0.5,0,0.7,0.1c0.2,0,0.5,0.1,0.7,0.3v1c-0.5-0.3-0.9-0.5-1.4-0.5   c-0.4,0-0.8,0.2-1.1,0.5c-0.3,0.3-0.4,0.7-0.4,1.2c0,0.5,0.2,0.9,0.5,1.2c0.3,0.3,0.7,0.4,1.2,0.4C222.3,98,222.7,97.9,223.2,97.7z   "/>
	<path fill="#231F20" d="M226.6,93.9c0.7,0,1.4,0.2,1.9,0.7s0.7,1.1,0.7,1.8c0,0.7-0.3,1.3-0.8,1.8c-0.5,0.5-1.1,0.7-1.9,0.7   c-0.7,0-1.4-0.2-1.9-0.7c-0.5-0.5-0.7-1.1-0.7-1.8c0-0.7,0.3-1.3,0.8-1.8C225.2,94.1,225.9,93.9,226.6,93.9z M226.6,94.8   c-0.5,0-0.9,0.2-1.2,0.5c-0.3,0.3-0.4,0.7-0.4,1.2c0,0.5,0.2,0.9,0.5,1.2c0.3,0.3,0.7,0.4,1.2,0.4c0.5,0,0.9-0.2,1.2-0.5   s0.5-0.7,0.5-1.2c0-0.5-0.2-0.9-0.5-1.2C227.5,94.9,227.1,94.8,226.6,94.8z"/>
	<path fill="#231F20" d="M233.4,98.9v-0.6c-0.2,0.2-0.4,0.4-0.7,0.5s-0.5,0.2-0.8,0.2c-0.3,0-0.6-0.1-0.9-0.2   c-0.3-0.2-0.5-0.4-0.6-0.6c-0.1-0.3-0.2-0.7-0.2-1.3v-2.8h1v2.8c0,0.5,0.1,0.9,0.2,1.1c0.1,0.2,0.4,0.3,0.8,0.3   c0.5,0,0.9-0.2,1.2-0.7v-3.5h1v4.9H233.4z"/>
	<path fill="#231F20" d="M236.8,93.9v0.6c0.4-0.5,0.9-0.7,1.5-0.7c0.3,0,0.6,0.1,0.9,0.2c0.3,0.2,0.5,0.4,0.6,0.7   c0.1,0.3,0.2,0.7,0.2,1.3v2.8h-1V96c0-0.5-0.1-0.9-0.2-1.1c-0.2-0.2-0.4-0.3-0.8-0.3c-0.5,0-0.9,0.2-1.2,0.7v3.5h-1v-4.9H236.8z"/>
	<path fill="#231F20" d="M240.6,94.7l1.8-1.8v1h1.6v0.9h-1.6v2.4c0,0.6,0.2,0.8,0.7,0.8c0.3,0,0.7-0.1,1.1-0.3v0.9   c-0.4,0.2-0.8,0.3-1.2,0.3c-0.4,0-0.8-0.1-1.1-0.4c-0.1-0.1-0.2-0.2-0.2-0.3s-0.1-0.2-0.2-0.4s-0.1-0.5-0.1-0.9v-2.2L240.6,94.7   L240.6,94.7z"/>
	<path fill="#231F20" d="M246.4,98.3c0,0.2-0.1,0.3-0.2,0.5c-0.1,0.1-0.3,0.2-0.5,0.2c-0.2,0-0.4-0.1-0.5-0.2   c-0.1-0.1-0.2-0.3-0.2-0.5c0-0.2,0.1-0.4,0.2-0.5c0.1-0.1,0.3-0.2,0.5-0.2c0.2,0,0.4,0.1,0.5,0.2C246.3,97.9,246.4,98.1,246.4,98.3   z M245.6,96.5l-0.1-0.3c-0.1-0.2-0.2-0.7-0.3-1.5c-0.1-0.8-0.1-1.4-0.1-1.9c0-1,0.2-1.6,0.6-1.6c0.4,0,0.6,0.5,0.6,1.5   c0,0.8-0.1,1.7-0.2,2.6l-0.1,0.8l-0.1,0.3c0,0.1-0.1,0.2-0.1,0.2C245.7,96.7,245.6,96.6,245.6,96.5z"/>
</g>
<g>
	<path fill="#231F20" d="M284.8,91.3h1.1v7.5h-1.1V91.3z"/>
	<path fill="#231F20" d="M289.3,95.7l-0.8-0.5c-0.5-0.3-0.9-0.6-1.1-0.9s-0.3-0.7-0.3-1c0-0.6,0.2-1.1,0.6-1.4s0.9-0.6,1.6-0.6   c0.6,0,1.2,0.2,1.7,0.5V93c-0.5-0.5-1.1-0.8-1.7-0.8c-0.3,0-0.6,0.1-0.9,0.2c-0.2,0.2-0.3,0.4-0.3,0.6c0,0.2,0.1,0.4,0.2,0.6   c0.2,0.2,0.4,0.4,0.8,0.6l0.8,0.5c0.9,0.5,1.4,1.2,1.4,2.1c0,0.6-0.2,1.1-0.6,1.5c-0.4,0.4-0.9,0.6-1.6,0.6c-0.7,0-1.4-0.2-2-0.7   v-1.4c0.6,0.7,1.2,1.1,2,1.1c0.3,0,0.6-0.1,0.8-0.3s0.3-0.4,0.3-0.7C290.3,96.5,290,96.1,289.3,95.7z"/>
	<path fill="#231F20" d="M294.4,95.7l-0.8-0.5c-0.5-0.3-0.9-0.6-1.1-0.9s-0.3-0.7-0.3-1c0-0.6,0.2-1.1,0.6-1.4s0.9-0.6,1.6-0.6   c0.6,0,1.2,0.2,1.7,0.5V93c-0.5-0.5-1.1-0.8-1.7-0.8c-0.3,0-0.6,0.1-0.9,0.2c-0.2,0.2-0.3,0.4-0.3,0.6c0,0.2,0.1,0.4,0.2,0.6   c0.2,0.2,0.4,0.4,0.8,0.6l0.8,0.5c0.9,0.5,1.4,1.2,1.4,2.1c0,0.6-0.2,1.1-0.6,1.5c-0.4,0.4-0.9,0.6-1.6,0.6c-0.7,0-1.4-0.2-2-0.7   v-1.4c0.6,0.7,1.2,1.1,2,1.1c0.3,0,0.6-0.1,0.8-0.3s0.3-0.4,0.3-0.7C295.3,96.5,295,96.1,294.4,95.7z"/>
	<path fill="#231F20" d="M303.4,91.3h1v7.5h-0.9l-5-5.8v5.8h-1v-7.5h0.9l5,5.8V91.3z"/>
	<path fill="#231F20" d="M310.5,91.3h1.1v7.5h-1.1V91.3z"/>
	<path fill="#231F20" d="M315.7,94.5L315.7,94.5c0.5,0,0.9-0.1,1.1-0.3s0.4-0.5,0.4-0.8c0-0.3-0.1-0.6-0.4-0.8   c-0.2-0.2-0.5-0.3-0.9-0.3c-0.4,0-0.8,0.1-1.3,0.4v-1c0.4-0.2,0.9-0.3,1.4-0.3c0.7,0,1.2,0.2,1.6,0.5s0.6,0.9,0.6,1.5   c0,0.4-0.1,0.7-0.2,1c-0.2,0.3-0.4,0.5-0.7,0.7c0.3,0.1,0.5,0.3,0.6,0.4c0.1,0.2,0.2,0.4,0.3,0.6c0.1,0.2,0.1,0.5,0.1,0.8   c0,0.7-0.2,1.2-0.7,1.6c-0.4,0.4-1,0.6-1.6,0.6c-0.6,0-1.1-0.1-1.6-0.4v-1.2c0.6,0.4,1.1,0.5,1.6,0.5c0.4,0,0.6-0.1,0.9-0.3   c0.2-0.2,0.3-0.5,0.3-0.9c0-0.3-0.1-0.6-0.3-0.8c-0.1-0.1-0.2-0.2-0.4-0.3c-0.1-0.1-0.4-0.1-0.8-0.2l-0.1,0V94.5z"/>
	<path fill="#231F20" d="M321.4,91.3h1.1v7.5h-1.1V91.3z"/>
	<path fill="#231F20" d="M328.6,91.3h0.4v4.2h0.8v0.9H329v2.5h-1v-2.5h-3.2v-0.5L328.6,91.3z M328,95.5v-2.2l-1.7,2.2H328z"/>
	<path fill="#231F20" d="M330.6,95.9h2.7v1h-2.7V95.9z"/>
	<path fill="#231F20" d="M336,97.8h2.8v1h-4.7v-0.1l0.4-0.5c0.7-0.9,1.3-1.6,1.7-2.2c0.4-0.6,0.7-1.1,0.8-1.4   c0.1-0.3,0.2-0.6,0.2-0.9c0-0.4-0.1-0.8-0.4-1c-0.2-0.3-0.6-0.4-1-0.4c-0.3,0-0.6,0.1-0.9,0.3c-0.3,0.2-0.6,0.4-0.8,0.7V92   c0.6-0.5,1.2-0.7,1.8-0.7c0.7,0,1.2,0.2,1.6,0.7c0.4,0.4,0.6,1,0.6,1.7c0,0.3-0.1,0.6-0.2,1c-0.1,0.3-0.3,0.7-0.6,1.2   c-0.3,0.4-0.7,1.1-1.4,1.8L336,97.8z"/>
	<path fill="#231F20" d="M339.7,93.4c0-0.6,0.2-1.1,0.7-1.5c0.4-0.4,1-0.6,1.6-0.6c0.6,0,1.2,0.2,1.6,0.6s0.6,0.9,0.6,1.5   c0,0.7-0.3,1.2-0.9,1.7c0.7,0.4,1,1,1,1.8c0,0.6-0.2,1.1-0.7,1.5c-0.4,0.4-1,0.6-1.7,0.6c-0.7,0-1.2-0.2-1.7-0.6   c-0.5-0.4-0.7-0.9-0.7-1.5c0-0.8,0.4-1.4,1.1-1.8c-0.3-0.3-0.5-0.5-0.7-0.8C339.8,94,339.7,93.7,339.7,93.4z M343.2,96.8v-0.1   c0-0.3-0.1-0.6-0.4-0.8c-0.2-0.2-0.6-0.3-0.9-0.3c-0.4,0-0.7,0.1-0.9,0.3c-0.2,0.2-0.4,0.5-0.4,0.8c0,0.3,0.1,0.6,0.4,0.8   c0.2,0.2,0.6,0.3,1,0.3c0.4,0,0.7-0.1,0.9-0.3C343.1,97.4,343.2,97.2,343.2,96.8z M343.1,93.4c0-0.3-0.1-0.6-0.3-0.8   c-0.2-0.2-0.5-0.3-0.8-0.3c-0.3,0-0.6,0.1-0.8,0.3c-0.2,0.2-0.3,0.5-0.3,0.8c0,0.3,0.1,0.6,0.4,0.8c0.2,0.2,0.5,0.3,0.8,0.3   c0.3,0,0.6-0.1,0.8-0.3C343,94,343.1,93.7,343.1,93.4z"/>
	<path fill="#231F20" d="M346.9,97.8h2.8v1H345v-0.1l0.4-0.5c0.7-0.9,1.3-1.6,1.7-2.2c0.4-0.6,0.7-1.1,0.8-1.4   c0.1-0.3,0.2-0.6,0.2-0.9c0-0.4-0.1-0.8-0.4-1c-0.2-0.3-0.6-0.4-1-0.4c-0.3,0-0.6,0.1-0.9,0.3c-0.3,0.2-0.6,0.4-0.8,0.7V92   c0.6-0.5,1.2-0.7,1.8-0.7c0.7,0,1.2,0.2,1.6,0.7c0.4,0.4,0.6,1,0.6,1.7c0,0.3-0.1,0.6-0.2,1c-0.1,0.3-0.3,0.7-0.6,1.2   c-0.3,0.4-0.7,1.1-1.4,1.8L346.9,97.8z"/>
	<path fill="#231F20" d="M350.7,93.4c0-0.6,0.2-1.1,0.7-1.5c0.4-0.4,1-0.6,1.6-0.6c0.6,0,1.2,0.2,1.6,0.6s0.6,0.9,0.6,1.5   c0,0.7-0.3,1.2-0.9,1.7c0.7,0.4,1,1,1,1.8c0,0.6-0.2,1.1-0.7,1.5c-0.4,0.4-1,0.6-1.7,0.6c-0.7,0-1.2-0.2-1.7-0.6   c-0.5-0.4-0.7-0.9-0.7-1.5c0-0.8,0.4-1.4,1.1-1.8c-0.3-0.3-0.5-0.5-0.7-0.8C350.7,94,350.7,93.7,350.7,93.4z M354.2,96.8v-0.1   c0-0.3-0.1-0.6-0.4-0.8c-0.2-0.2-0.6-0.3-0.9-0.3c-0.4,0-0.7,0.1-0.9,0.3c-0.2,0.2-0.4,0.5-0.4,0.8c0,0.3,0.1,0.6,0.4,0.8   c0.2,0.2,0.6,0.3,1,0.3c0.4,0,0.7-0.1,0.9-0.3C354.1,97.4,354.2,97.2,354.2,96.8z M354.1,93.4c0-0.3-0.1-0.6-0.3-0.8   c-0.2-0.2-0.5-0.3-0.8-0.3c-0.3,0-0.6,0.1-0.8,0.3c-0.2,0.2-0.3,0.5-0.3,0.8c0,0.3,0.1,0.6,0.4,0.8c0.2,0.2,0.5,0.3,0.8,0.3   c0.3,0,0.6-0.1,0.8-0.3C354,94,354.1,93.7,354.1,93.4z"/>
	<path fill="#231F20" d="M361.5,91.3h0.6c-0.4,0.7-0.8,1.2-1,1.7s-0.4,1-0.5,1.6c-0.1,0.6-0.2,1.2-0.2,1.8c0,2,0.5,3.6,1.6,5h-0.6   l-0.2-0.2c-0.4-0.5-0.7-0.9-0.9-1.2s-0.4-0.7-0.6-1.2c-0.3-0.8-0.5-1.6-0.5-2.4c0-0.8,0.2-1.7,0.5-2.4   C360.1,93.1,360.7,92.2,361.5,91.3z"/>
	<path fill="#231F20" d="M365.2,93.9c0.7,0,1.4,0.2,1.9,0.7s0.7,1.1,0.7,1.8c0,0.7-0.3,1.3-0.8,1.8c-0.5,0.5-1.1,0.7-1.9,0.7   c-0.7,0-1.4-0.2-1.9-0.7c-0.5-0.5-0.7-1.1-0.7-1.8c0-0.7,0.3-1.3,0.8-1.8C363.9,94.1,364.5,93.9,365.2,93.9z M365.2,94.8   c-0.5,0-0.9,0.2-1.2,0.5c-0.3,0.3-0.4,0.7-0.4,1.2c0,0.5,0.2,0.9,0.5,1.2c0.3,0.3,0.7,0.4,1.2,0.4c0.5,0,0.9-0.2,1.2-0.5   s0.5-0.7,0.5-1.2c0-0.5-0.2-0.9-0.5-1.2C366.1,94.9,365.7,94.8,365.2,94.8z"/>
	<path fill="#231F20" d="M369.9,93.9v0.6c0.4-0.5,0.9-0.7,1.5-0.7c0.3,0,0.6,0.1,0.9,0.2c0.3,0.2,0.5,0.4,0.6,0.7   c0.1,0.3,0.2,0.7,0.2,1.3v2.8h-1V96c0-0.5-0.1-0.9-0.2-1.1c-0.2-0.2-0.4-0.3-0.8-0.3c-0.5,0-0.9,0.2-1.2,0.7v3.5h-1v-4.9H369.9z"/>
	<path fill="#231F20" d="M374.4,91.3h1v7.5h-1V91.3z"/>
	<path fill="#231F20" d="M377.3,91.8c0.2,0,0.3,0.1,0.4,0.2c0.1,0.1,0.2,0.2,0.2,0.4c0,0.2-0.1,0.3-0.2,0.4   c-0.1,0.1-0.3,0.2-0.4,0.2c-0.1,0-0.3-0.1-0.4-0.2s-0.2-0.3-0.2-0.4c0-0.2,0.1-0.3,0.2-0.4S377.2,91.8,377.3,91.8z M376.8,93.9h1   v4.9h-1V93.9z"/>
	<path fill="#231F20" d="M380.2,93.9v0.6c0.4-0.5,0.9-0.7,1.5-0.7c0.3,0,0.6,0.1,0.9,0.2c0.3,0.2,0.5,0.4,0.6,0.7   c0.1,0.3,0.2,0.7,0.2,1.3v2.8h-1V96c0-0.5-0.1-0.9-0.2-1.1c-0.2-0.2-0.4-0.3-0.8-0.3c-0.5,0-0.9,0.2-1.2,0.7v3.5h-1v-4.9H380.2z"/>
	<path fill="#231F20" d="M388.9,96.5h-3.5c0,0.5,0.2,0.8,0.5,1.1c0.3,0.3,0.7,0.4,1.1,0.4c0.6,0,1.2-0.2,1.8-0.6v1   c-0.3,0.2-0.6,0.3-0.9,0.4c-0.3,0.1-0.6,0.1-1,0.1c-0.5,0-1-0.1-1.3-0.3s-0.6-0.5-0.8-0.9c-0.2-0.4-0.3-0.8-0.3-1.3   c0-0.8,0.2-1.4,0.6-1.8c0.4-0.5,1-0.7,1.7-0.7c0.7,0,1.2,0.2,1.6,0.7c0.4,0.5,0.6,1.1,0.6,1.8V96.5z M385.4,95.9h2.5   c0-0.4-0.1-0.7-0.3-0.9c-0.2-0.2-0.5-0.3-0.8-0.3s-0.6,0.1-0.9,0.3C385.7,95.2,385.5,95.5,385.4,95.9z"/>
	<path fill="#231F20" d="M390,101.4h-0.6c0.5-0.7,0.8-1.3,1-1.8c0.2-0.5,0.3-1,0.4-1.6c0.1-0.6,0.1-1.1,0.1-1.7   c0-0.6-0.1-1.2-0.2-1.8c-0.1-0.6-0.3-1.1-0.5-1.7c-0.2-0.5-0.5-1-0.9-1.6h0.6l0.2,0.2c0.4,0.5,0.7,0.9,0.9,1.2s0.4,0.7,0.6,1.2   c0.3,0.8,0.5,1.6,0.5,2.5c0,0.8-0.1,1.6-0.4,2.3c-0.1,0.4-0.3,0.7-0.5,1.1C390.9,100.1,390.5,100.7,390,101.4z"/>
</g>
</svg>