<?xml version="1.0" encoding="utf-8"?>
<!-- Generator: Adobe Illustrator 16.0.0, SVG Export Plug-In . SVG Version: 6.00 Build 0)  -->
<!DOCTYPE svg PUBLIC "-//W3C//DTD SVG 1.1//EN" "http://www.w3.org/Graphics/SVG/1.1/DTD/svg11.dtd">
<svg version="1.1" id="Layer_1" xmlns="http://www.w3.org/2000/svg" xmlns:xlink="http://www.w3.org/1999/xlink" x="0px" y="0px"
	 width="402px" height="102px" viewBox="0 0 402 102" enable-background="new 0 0 402 102" xml:space="preserve">
<g>
	<g>
		<g>
			<g>
				<path fill="#3BC9D0" d="M47.303,73.596c-0.583,0.737-0.666,0.642-1.246,1.222c-1.333,1.328-3.363,7.466-4.479,10.273
					c-0.047,0.118-0.093,0.229-0.136,0.34c-1.078,2.613,0.741,4.254,1.665,6.867c0.921,2.613-2.302,2.188-2.302,2.188h-5.93
					c-2.549-0.826-2.356-3.136-1.895-5.213c0.101-0.458,0.305-1.199,0.569-2.123c1.314-4.595,4.175-13.671,4.046-14.946
					c-0.101-1.017-1.253-7.293-2.023-11.429c1.813,2.005,4.534,3.419,6.463,5.052c1.181,0.999,2.775,4.895,3.491,5.643
					C46.791,72.783,47.099,73.116,47.303,73.596z"/>
			</g>
			<path fill="#3BC9D0" d="M88.678,47.823"/>
			<path fill="#3BC9D0" d="M75.861,71.295c0.77,0.714,1.411,1.072,2.316,1.553c1.96,1.038,2.904,3.135,1.488,5.119
				C79.396,78.344,79.45,88.075,80.94,89.3c1.49,1.225,3.498,6.059-0.583,5.281h-7.846c-2.249-0.727-1.175-3.928-1.153-5.844
				c0.021-1.715,0.39-3.323,0.387-5.013c-0.003-2.19,0.423-4.24,0.137-6.431c-0.04-0.272-0.072-0.544-0.094-0.813
				c-0.152-1.901-0.203-3.832-0.049-5.737c0.06-0.739,0.146-1.425,0.128-2.176C71.885,69.381,75.192,70.674,75.861,71.295z"/>
			<g>
				<path fill="#3BC9D0" d="M95.739,78.046c0,2.46,0,2.46-1.074,3.384c-1.078,0.924-2.463,5.23-3.08,7.842
					c-0.616,2.617-1.536,3.079-2.921,2.924c-0.778-0.081-1.529-1.338-1.941-1.878c-0.899-1.182-1.705-2.439-2.492-3.692
					c-0.502-0.799-2.185-2.675-1.955-3.552c0.333-1.271,2.592-1.497,3.498-2.159c0.974-0.709,1.446-1.672,1.966-2.718
					c0.412-0.816,0.093-1.637-6.048-5.063c-0.58-0.323-1.218-0.671-1.912-1.046c-0.04-0.021-0.079-0.04-0.118-0.062l-0.007-0.003
					l-7.698-4.96v-0.003c-0.331-0.469-0.605-0.944-0.835-1.415c-1.356-2.742-1.224-5.292-1.224-5.292l-10.921,1.851
					c0,0,0.308,1.845,1.063,3.539c0.749,1.689-1.983,5.532-2.757,6.305c-0.77,0.767-1.103,6.173-1.103,6.173
					s-0.244,1.311-0.459,3.033c-0.373,3.04-0.658,7.391,0.613,8.278c1.116,0.773,2.17,1.63,2.384,2.765
					c0.173,0.902-0.394,2.206-0.394,2.206l-5.654,0.024c-3.079-0.149-5.951,0.365-5.951-4.153c0-1.021,0.469-3.845,0.945-6.9
					c0.459-2.936,0.928-6.083,1.006-8.046c0.04-1.105-0.189-2.037-0.559-2.863c-0.809-1.802-2.678-2.833-3.441-5.44
					c-0.77-2.613-5.847-5.076-8.769-8.306c-0.405-0.452-0.742-1.035-1.017-1.709c0-0.004-0.004-0.007-0.004-0.007
					c-1.701-4.157-1.131-11.666-1.131-11.666s-1.078,0.308-2.001,2.921c-0.924,2.614-4.92,8.615-7.072,10.151
					c-2.156,1.54-6.618,4.923-9.078,6.921c-2.313,1.881-5.567,4.569-5.965,4.892c0.73-0.766,12.54-13.141,16.117-16.27
					c1.872-1.637,3.187-6.277,5.055-11.559c1.816-5.139,4.15-10.881,8.017-15.057c7.849-8.457,18-3.076,21.215-2.589
					c2.005,0.308,4.247,0.229,5.643,0.129c0.792-0.057,1.315-0.122,1.365-0.129c0.232-0.064,0.461-0.128,0.688-0.186
					c0.046,0.418,0.096,0.795,0.143,1.103c0.329,2.138,1.969,6.17,3.526,7.279c1.558,1.107,1.723,0.949,1.887,1.662
					c0.165,0.708,0.82,1.188,1.641,2.375c0.82,1.185,3.691,5.456,4.429,6.247c0.737,0.792,3.445,3.245,5.905,5.063
					c1.479,1.096,2.219,0.932,2.643,0.506c-0.143,0.286-0.265,0.604-0.366,0.949c-1.099,3.784,0.373,10.723,0.505,13.742
					c0.086,2.009,1.415,4.067,2.857,5.809c1.096,1.328,2.256,2.47,2.991,3.265C95.584,74.513,95.739,75.583,95.739,78.046z"/>
			</g>
			<g>
				<g>
					<path fill="#3BC9D0" d="M87.908,48.897"/>
				</g>
				<path fill="#3BC9D0" d="M89.72,43.162c1.735-1.747,0.784-3.41,1.224-5.538c0.333-1.595,2.412-3.975,3.625-1.628
					c-3.774-1.766-2.826,5.902-4.849,6.962V43.162z"/>
			</g>
			<g>
				<path fill="#3BC9D0" d="M131.806,48.679c-0.522,1.905-1.1,4.708-2.267,6.334c-1.339,1.857-4.472,3.434-6.76,3.173
					c-2.016-0.229-4.719-1.594-6.08-3.055c-0.677-0.728-1.045-1.722-1.608-2.541c-0.87-1.265-0.931-2.965-0.648-4.391
					c0.183-0.939-0.623-2.139-1.268-2.703c-2.645,2.335-4.251,1.928-7.759,1.163c-0.966-0.214-1.965-0.426-2.9-0.773
					c-1.182-0.437-1.948-0.286-3.22-0.419c-0.913-0.093-1.918-0.766-2.828-1.46c-1.959-0.766-3.992-1.461-4.901-0.394
					c-0.004,0.003-0.011,0.006-0.011,0.014c-0.021,0.037-0.011,0.076,0.028,0.118c0.15,0.151,0.122,0.373-0.075,0.702
					c-0.089,0.147-0.208,0.312-0.365,0.512c-0.38,0.283-1.131,0.913-2.423,2.048c-0.391,0.269-0.989,0.314-1.999-0.312
					c-0.15-0.094-0.312-0.204-0.484-0.329c-2.459-1.815-5.166-4.271-5.904-5.06c-0.738-0.794-3.609-5.066-4.43-6.251
					c-0.82-1.188-1.475-1.661-1.643-2.374c-0.158-0.708-0.326-0.555-1.883-1.661c-1.418-1.01-2.901-4.433-3.402-6.653
					c-0.05-0.222-0.093-0.434-0.123-0.631c-0.541-3.513-1.074-7.609,1.403-10.362c5.02-5.573,15.99-5.357,21.747-1.391
					c1.231,0.848,4.232,3.229,4.998,3.923c0.541,0.48,1.379,1.418,1.833,1.941c0.193,0.222,0.322,0.364,0.322,0.364
					s3.841,2.768,6.535,3.462c3,1.461,5.691,5.687,5.693,5.69c1.029,1.617,2.335,2.833,3.229,4.582
					c1.712,3.348,3.663,6.981,5.006,10.339c0,0,0.455,1.157,0.455,1.54c0,0.383,1.705,4.074,0.473,5.306
					c-0.071,0.076-0.136,0.158-0.186,0.244c-0.111,0.196-0.154,0.429-0.154,0.672c0.007,0.846,0.598,1.845,1.01,2.39
					c1.286,1.689,4.089,1.511,5.482,0.007c0.211-0.222,0.383-0.477,0.522-0.756c0.523-1.096,0.895-2.227,0.77-3.383
					c-0.018-0.219-0.386-0.43-0.419-0.652c-0.079-0.548-0.501-1.422,0.125-1.805c0.605-0.369,1.307,0.415,1.94,0.336
					c0.855-0.111,1.854-1.59,2.528-0.158C132.333,46.376,132.147,47.444,131.806,48.679z"/>
			</g>
			<path fill="#FFFFFF" d="M101.191,33.16c-0.111,0.112,0.807,0.921,0.925,0.995c0.333,0.214,0.709,0.333,1.106,0.361
				c0.497,0.037,1.992-0.555,2.202-0.033c-0.166-0.437-0.218-0.913-0.534-1.278c-0.328-0.375-0.603-0.717-1.107-0.843
				C102.853,32.133,101.775,32.578,101.191,33.16z"/>
			<path fill="#FFFFFF" d="M101.806,33.211c-0.177,0.174,0.926,0.832,1.071,0.871c0.418,0.113,0.865,0.015,1.294,0.023
				c0.447,0.007,0.651,0.043,0.432-0.443c-0.197-0.43-0.561-0.875-1.035-0.996C102.937,32.513,102.202,32.814,101.806,33.211z"/>
		</g>
		<g>
			<path fill="#191930" d="M254.268,18.493c0,0-7.725-3.191-15.449-0.112c0,12.71,0,21.912,0,21.912
				c2.402-9.535,10.645-13.229,13.984-14.169c0.297-0.078,1.465-0.275,1.465-0.275V18.493z"/>
			<path fill="#191930" d="M254.377,93.586c-8.391,2.788-15.643,0-15.643,0V47.194c0.6-15.086,15.643-15.602,15.643-15.59
				C254.412,31.604,254.377,93.586,254.377,93.586z"/>
			<path fill="#191930" d="M160.122,36.471v57.03c-8.495,2.62-15.83,0.184-15.83,0.184s0-24.875,0-45.205
				c0.286-0.839,0.624-1.616,1-2.34C149.226,38.245,157.635,36.744,160.122,36.471z"/>
			<path fill="#191930" d="M222.309,93.587c-6.764,2.646-17.092,0.066-17.092,0.066l-12.98-30.501h-13.563
				c-4.797,0-5.209-3.595-5.209-7.202c0-4.475,0.47-7.064,5.526-7.064h13.769c2.741,0,4.197-3.215,4.295-3.479
				c2.383-5.243,0.951-14.432-5.938-14.432h-30.996v0.036c-1.768,0.2-9.556,1.523-13.895,9.777c-0.134,0.248-0.268,0.506-0.405,0.78
				c-0.631,1.296-1.154,2.747-1.53,4.375V24.175c0-7.211,6.979-6.995,6.979-6.995h42.361c19.633,0,24.73,28.822,12.795,38.778
				L222.309,93.587z"/>
			<path fill="#191930" d="M260.916,67.688"/>
			<path fill="#191930" d="M338.002,58.802c0.135-0.068,0.271-0.144,0.408-0.218c0.4-0.228,0.803-0.473,1.203-0.739
				c0.078-0.05,0.154-0.104,0.229-0.155c0.84-0.58,1.668-1.257,2.455-2.05c0.074-0.07,0.145-0.146,0.215-0.22
				c0.107-0.114,0.217-0.229,0.324-0.349c0.072-0.076,0.143-0.153,0.211-0.233c0.656-0.748,1.273-1.582,1.84-2.518
				c0.148-0.24,0.301-0.49,0.453-0.755c0.781-1.386,1.441-2.965,1.936-4.777c0.713,2.943,1.092,6.014,1.092,9.172
				c0,21.39-17.342,38.741-38.734,38.741c-21.404,0-38.74-17.352-38.74-38.741c0-21.392,17.336-38.744,38.74-38.744
				c17.781,0,32.764,11.984,37.316,28.317c-0.25,0.528-0.516,1.028-0.799,1.5c-3.836,6.642-10.752,8.254-14.135,8.641
				c-0.152-12.241-10.119-22.101-22.383-22.101c-12.371,0-22.395,10.016-22.395,22.387c0,12.362,10.023,22.387,22.395,22.387
				c10.66,0,19.582-7.453,21.834-17.436c0.352-0.051,0.736-0.115,1.146-0.2c0.195-0.039,0.396-0.085,0.605-0.134
				c0.135-0.031,0.27-0.064,0.41-0.101c0.266-0.067,0.537-0.142,0.816-0.226c0.139-0.04,0.279-0.084,0.424-0.133
				c0.248-0.08,0.5-0.165,0.756-0.261c0.145-0.052,0.287-0.107,0.436-0.166c0.086-0.034,0.172-0.068,0.258-0.104L338.002,58.802z"/>
		</g>
	</g>
</g>
</svg>
