<?xml version="1.0" encoding="UTF-8" standalone="no"?>
<!-- Generator: Adobe Illustrator 27.2.0, SVG Export Plug-In . SVG Version: 6.00 Build 0)  -->

<svg
   version="1.1"
   id="a"
   x="0px"
   y="0px"
   viewBox="0 0 1085.908 300"
   xml:space="preserve"
   width="1085.908"
   height="300"
   xmlns="http://www.w3.org/2000/svg"
   xmlns:svg="http://www.w3.org/2000/svg"><defs
   id="defs39" />
<style
   type="text/css"
   id="style2">
	.st0{fill:#DB0B5B;}
</style>
















<g
   id="g28158"
   transform="translate(285.90805)"><path
     d="M 0,113.3 V 0 h 12.8 v 113.3 z m 44.8,0 L 8.9,74.3 46,33.4 h 16.3 l -36.9,40.5 36.5,39.4 z"
     id="path4" /><path
     d="M 86.7,113.3 V 33.4 h 12.8 v 6.4 h 3.7 c 2.1,-2.7 4.7,-4.7 8,-6.2 3.3,-1.5 6.9,-2.2 10.8,-2.2 5.7,0 10.6,1.2 14.7,3.7 4.1,2.5 7.3,6 9.6,10.5 2.3,4.5 3.4,9.8 3.4,16 v 51.7 H 136.9 V 65.1 c 0,-6.9 -1.6,-12.2 -4.8,-15.9 -3.2,-3.6 -7.8,-5.5 -13.9,-5.5 -6.1,0 -10.7,1.8 -13.9,5.5 -3.2,3.6 -4.8,8.9 -4.8,15.9 v 48.2 z"
     id="path6" /><path
     d="m 211,115.3 c -7.2,0 -13.5,-1.7 -18.8,-5.1 -5.3,-3.4 -9.5,-8.2 -12.4,-14.5 -2.9,-6.3 -4.3,-13.7 -4.3,-22.4 0,-8.7 1.5,-16.1 4.3,-22.3 2.9,-6.2 7,-11.1 12.4,-14.5 5.3,-3.4 11.6,-5.1 18.8,-5.1 7.2,0 13.6,1.7 18.9,5.1 5.3,3.4 9.4,8.3 12.3,14.5 2.9,6.2 4.3,13.7 4.3,22.3 0,8.6 -1.5,16.1 -4.3,22.4 -2.8,6.3 -7,11.1 -12.3,14.5 -5.3,3.4 -11.6,5.1 -18.9,5.1 z m 0,-12 c 7.2,0 12.8,-2.6 16.8,-7.9 4,-5.2 6,-12.6 6,-22.1 0,-9.5 -2,-16.8 -6,-22 -4,-5.2 -9.5,-7.9 -16.8,-7.9 -7.3,0 -12.7,2.6 -16.7,7.9 -4,5.3 -6,12.6 -6,22 0,9.4 2,16.8 6,22.1 4,5.3 9.5,7.9 16.7,7.9 z"
     id="path8" /><path
     d="M 277.2,113.3 262.4,33.4 h 12.7 l 8.3,47.6 2.7,23.1 h 1.2 L 296,33.4 h 18 l 9,70.7 h 1.2 l 2.4,-23.1 8.5,-47.6 h 11.5 l -15,79.9 h -17.5 l -9,-70.9 h -1.3 l -8.5,70.9 z"
     id="path10" /><path
     d="m 369.4,0 h 37.1 v 101.3 h 24.3 v 12 h -61.5 v -12 h 24.3 V 12 H 369.3 V 0 Z"
     id="path12" /><path
     d="m 460.4,66.1 h 49.4 l -4.4,5.6 c 0,-9.4 -1.7,-16.5 -5.1,-21.4 -3.4,-4.9 -8.3,-7.4 -14.8,-7.4 -7,0 -12.5,2.6 -16.4,7.8 -3.9,5.2 -5.8,12.5 -5.8,21.8 0,10.1 2,17.8 5.9,23.1 3.9,5.3 9.5,7.9 16.8,7.9 4.9,0 9.1,-1.3 12.7,-3.8 3.6,-2.5 6.5,-6.3 8.7,-11.2 h 12 c -1.3,5.5 -3.6,10.3 -6.7,14.3 -3.1,4 -6.9,7.1 -11.4,9.1 -4.5,2 -9.6,3.1 -15.3,3.1 -7.4,0 -13.7,-1.7 -19,-5 -5.3,-3.3 -9.3,-8.2 -12.1,-14.6 -2.8,-6.4 -4.2,-14.1 -4.2,-23.1 0,-9 1.4,-15.9 4.3,-22 2.8,-6.1 6.9,-10.9 12.1,-14.2 5.2,-3.3 11.3,-5 18.4,-5 7.1,0 12.5,1.6 17.2,4.7 4.7,3.1 8.3,7.7 10.8,13.7 2.5,6 3.7,13.3 3.7,21.8 0,1 0,2 -0.1,3 -0.1,1 -0.1,2 -0.2,2.9 h -56.7 z"
     id="path14" /><path
     d="m 572.3,115.3 c -6.6,0 -12.3,-1.7 -17.2,-5.1 -4.9,-3.4 -8.6,-8.2 -11.3,-14.5 -2.7,-6.3 -4,-13.7 -4,-22.4 0,-8.7 1.3,-16.1 4,-22.3 2.7,-6.2 6.4,-11.1 11.3,-14.5 4.8,-3.4 10.6,-5.1 17.2,-5.1 4.5,0 8.6,0.9 12.3,2.7 3.7,1.8 6.4,4.3 8.3,7.5 h 3.7 V 0 h 12.8 v 113.3 h -12.8 v -8 h -3.7 c -1.9,3.1 -4.6,5.6 -8.3,7.4 -3.7,1.8 -7.7,2.6 -12.3,2.6 z m 2.6,-12 c 7,0 12.5,-2.6 16.4,-7.9 3.9,-5.3 5.9,-12.6 5.9,-22.1 0,-9.5 -2,-16.8 -5.9,-22 -3.9,-5.2 -9.4,-7.9 -16.4,-7.9 -7,0 -12.5,2.6 -16.4,7.9 -3.9,5.3 -5.8,12.6 -5.8,22 0,9.4 1.9,16.8 5.8,22.1 3.9,5.3 9.3,7.9 16.4,7.9 z"
     id="path16" /><path
     d="m 703.3,111 c 0,6.4 -1.4,11.9 -4.1,16.6 -2.7,4.6 -6.6,8.2 -11.7,10.7 -5.1,2.5 -11.2,3.7 -18.4,3.7 -6.5,0 -12.2,-1 -17.2,-3 -5,-2 -8.9,-4.9 -11.8,-8.7 -2.8,-3.8 -4.5,-8.3 -4.8,-13.4 h 12.3 c 1.2,4.3 3.8,7.6 7.5,9.9 3.7,2.3 8.4,3.5 14,3.5 6.8,0 12,-1.8 15.8,-5.3 3.8,-3.5 5.6,-8.4 5.6,-14.8 v -9.8 h -3.7 c -1.8,2.8 -4.5,4.9 -8,6.6 -3.6,1.6 -7.4,2.4 -11.5,2.4 -6.5,0 -12.1,-1.6 -16.9,-4.7 -4.8,-3.2 -8.4,-7.7 -11,-13.5 -2.6,-5.8 -3.9,-12.7 -3.9,-20.6 0,-7.9 1.3,-15.1 3.9,-20.9 2.6,-5.8 6.3,-10.4 11,-13.6 4.8,-3.2 10.4,-4.8 16.9,-4.8 4.2,0 8,0.9 11.6,2.5 3.5,1.7 6.2,4 8,6.8 h 3.7 v -7.4 h 12.8 z M 648.2,70.7 c 0,8.6 1.9,15.4 5.7,20.1 3.8,4.8 9.1,7.1 15.8,7.1 6.7,0 12,-2.4 15.8,-7.1 3.8,-4.8 5.7,-11.5 5.7,-20.1 0,-8.6 -1.9,-15.3 -5.7,-20.1 -3.8,-4.8 -9.1,-7.1 -15.8,-7.1 -6.7,0 -12,2.4 -15.8,7.1 -3.8,4.8 -5.7,11.5 -5.7,20.1 z"
     id="path18" /><path
     d="m 741,66.1 h 49.4 l -4.4,5.6 c 0,-9.4 -1.7,-16.5 -5.1,-21.4 -3.4,-4.9 -8.3,-7.4 -14.8,-7.4 -7,0 -12.5,2.6 -16.4,7.8 -3.9,5.2 -5.8,12.5 -5.8,21.8 0,10.1 2,17.8 5.9,23.1 3.9,5.3 9.5,7.9 16.8,7.9 4.9,0 9.1,-1.3 12.7,-3.8 3.6,-2.5 6.5,-6.3 8.7,-11.2 h 12 c -1.3,5.5 -3.6,10.3 -6.7,14.3 -3.1,4 -6.9,7.1 -11.4,9.1 -4.5,2 -9.6,3.1 -15.3,3.1 -7.4,0 -13.7,-1.7 -19,-5 -5.3,-3.3 -9.3,-8.2 -12.1,-14.6 -2.8,-6.4 -4.2,-14.1 -4.2,-23.1 0,-9 1.4,-15.9 4.3,-22 2.8,-6.1 6.9,-10.9 12.1,-14.2 5.2,-3.3 11.3,-5 18.4,-5 7.1,0 12.5,1.6 17.2,4.7 4.7,3.1 8.3,7.7 10.8,13.7 2.5,6 3.7,13.3 3.7,21.8 0,1 0,2 -0.1,3 -0.1,1 -0.1,2 -0.2,2.9 h -56.7 z"
     id="path20" /><path
     d="M 0,300 V 193.4 h 12.8 v 8.1 h 3.7 c 1.9,-3.2 4.6,-5.7 8.4,-7.5 3.7,-1.8 7.8,-2.7 12.2,-2.7 6.6,0 12.3,1.7 17.2,5.1 4.9,3.4 8.7,8.3 11.3,14.5 2.6,6.2 3.9,13.7 3.9,22.3 0,8.6 -1.3,16.1 -3.9,22.4 -2.6,6.3 -6.4,11.1 -11.3,14.5 -4.9,3.4 -10.6,5.1 -17.2,5.1 -4.5,0 -8.5,-0.9 -12.2,-2.7 -3.7,-1.8 -6.5,-4.2 -8.4,-7.4 H 12.8 V 300 Z m 34.6,-36.7 c 7,0 12.5,-2.6 16.4,-7.9 3.9,-5.2 5.8,-12.6 5.8,-22 0,-9.4 -1.9,-16.8 -5.8,-22 -3.9,-5.2 -9.3,-7.9 -16.4,-7.9 -7.1,0 -12.5,2.6 -16.4,7.9 -3.9,5.3 -5.9,12.6 -5.9,22 0,9.4 2,16.8 5.9,22 3.9,5.3 9.4,7.9 16.4,7.9 z"
     id="path22" /><path
     d="M 98.9,193.4 H 136 v 67.9 h 24.3 v 12 H 98.9 v -12 h 24.3 V 205.4 H 98.9 Z"
     id="path24" /><path
     d="m 184.2,273.3 23.9,-38.2 -25.4,-41.7 h 15 l 19.6,31.9 0.9,3.5 h 1.3 l 0.9,-3.5 20.6,-31.9 h 14 l -25.7,40.6 24.5,39.3 h -15.2 l -18.4,-29.3 -1.1,-3.3 h -1.2 l -0.9,3.3 -18.4,29.3 z"
     id="path26" /><path
     d="m 288.9,226.1 h 49.4 l -4.4,5.6 c 0,-9.4 -1.7,-16.5 -5.1,-21.4 -3.4,-4.9 -8.3,-7.4 -14.8,-7.4 -7,0 -12.5,2.6 -16.4,7.8 -3.9,5.2 -5.8,12.5 -5.8,21.9 0,10.1 2,17.8 5.9,23 3.9,5.2 9.5,8 16.8,8 4.9,0 9.1,-1.3 12.7,-3.8 3.6,-2.5 6.5,-6.3 8.7,-11.1 h 12 c -1.3,5.5 -3.6,10.3 -6.7,14.3 -3.1,4 -6.9,7.1 -11.4,9.1 -4.5,2 -9.6,3.1 -15.3,3.1 -7.4,0 -13.7,-1.7 -19,-5 -5.3,-3.3 -9.3,-8.2 -12.1,-14.6 -2.8,-6.4 -4.2,-14 -4.2,-23 0,-9 1.4,-15.9 4.3,-22 2.9,-6.1 6.9,-10.9 12.1,-14.2 5.2,-3.3 11.3,-5 18.4,-5 7.1,0 12.5,1.6 17.2,4.7 4.7,3.1 8.3,7.7 10.8,13.7 2.5,6 3.7,13.3 3.7,21.8 0,1 0,2 -0.1,3 0,1 -0.1,2 -0.2,2.9 h -56.6 z"
     id="path28" /><path
     d="m 369.4,160 h 37.1 v 101.3 h 24.3 v 12 h -61.5 v -12 h 24.3 V 172 h -24.3 v -12 z"
     id="path30" /><path
     d="m 464.6,249 c 1.2,4.6 3.5,8.2 6.9,10.6 3.4,2.5 7.9,3.7 13.4,3.7 5.5,0 10.1,-1.1 13.1,-3.2 3,-2.1 4.5,-5.2 4.5,-9.1 0,-2.8 -1.2,-5 -3.6,-6.8 -2.4,-1.8 -6,-3 -10.8,-3.7 l -10,-1.5 c -8.5,-1.2 -14.8,-3.7 -18.8,-7.5 -4,-3.7 -6,-8.9 -6,-15.5 0,-7.7 2.8,-13.7 8.3,-18 5.5,-4.3 13.2,-6.5 23,-6.5 9.8,0 17.8,2.5 23.6,7.4 5.8,4.9 8.8,11.9 9.3,20.8 h -11.8 c -1.2,-5.2 -3.5,-9.3 -7.1,-12 -3.6,-2.8 -8.3,-4.1 -14.2,-4.1 -5.9,0 -10.5,1.1 -13.8,3.3 -3.3,2.2 -4.8,5.2 -4.8,9.1 0,2.8 1.2,5 3.6,6.8 2.4,1.7 6,3 11,3.7 l 10,1.5 c 8.5,1.3 14.8,3.9 18.8,7.6 4,3.7 6,8.9 6,15.5 0,5.1 -1.2,9.4 -3.7,13.1 -2.5,3.7 -6,6.5 -10.5,8.4 -4.5,2 -10,2.9 -16.3,2.9 -9.7,0 -17.3,-2.3 -22.9,-6.9 -5.6,-4.6 -8.6,-11.1 -9.2,-19.4 z"
     id="path32" /><rect
     x="118.8"
     y="160.39999"
     transform="matrix(0.2462,-0.9692,0.9692,0.2462,-68.1721,254.1622)"
     class="st0"
     width="21.1"
     height="21.1"
     id="rect34" /><g
     aria-label="by"
     id="text1540"
     style="font-size:133.333px;line-height:125%;font-family:'Bitstream Vera Sans';letter-spacing:0px;word-spacing:0px;stroke-width:1px"><path
       d="m -248.84147,115.06638 q -6.66665,0 -12.26664,-2.66666 -5.46665,-2.66666 -8.26664,-7.33332 h -3.73333 v 7.99998 h -12.79997 V 5.6762695e-6 h 12.79997 V 41.466566 h 3.73333 q 2.79999,-4.799987 8.26664,-7.466647 5.59999,-2.66666 12.26664,-2.66666 9.86664,0 17.19995,5.199987 7.33332,5.066653 11.19997,14.399963 3.99999,9.333309 3.99999,22.26661 0,12.9333 -3.99999,22.399942 -3.86665,9.333309 -11.19997,14.399959 -7.33331,5.06666 -17.19995,5.06666 z m -2.53333,-11.99997 q 10.53331,0 16.26662,-7.866648 5.86666,-7.866646 5.86666,-21.999943 0,-14.133298 -5.86666,-21.999944 -5.73331,-7.866647 -16.26662,-7.866647 -10.53331,0 -16.39996,7.866647 -5.86665,7.866646 -5.86665,21.999944 0,14.133297 5.86665,21.999943 5.86665,7.866648 16.39996,7.866648 z"
       style="font-weight:300;font-family:'Martian Mono';-inkscape-font-specification:'Martian Mono Light';fill:#d1d1d1"
       id="path40982" /><path
       d="m -197.37509,33.333254 h 13.73329 l 21.73328,61.333176 h 8.66665 l -3.46666,11.7333 h -14.66663 z m 73.73314,0 -30.53325,91.999766 q -2.66666,7.86665 -7.73332,12.1333 -5.06665,4.26666 -11.59997,4.26666 -9.59997,0 -14.93329,-5.33332 -5.33332,-5.19999 -6.13332,-15.46663 h 11.7333 q 1.46666,4.79999 3.46666,6.93332 1.99999,2.26666 5.33332,2.26666 3.06666,0 4.93332,-2 2,-1.99999 3.59999,-6.39998 l 29.06659,-88.399776 z"
       style="font-weight:300;font-family:'Martian Mono';-inkscape-font-specification:'Martian Mono Light';fill:#d1d1d1"
       id="path40984" /></g></g></svg>
