<?xml version="1.0" encoding="UTF-8"?><svg id="a" xmlns="http://www.w3.org/2000/svg" viewBox="0 0 1308 237"><defs><style>.b{fill:#c7d1dc;}.c{fill:#0b73da;}</style></defs><g><g><path d="m73.04,171.13v-79.9h12.83v6.41h3.74c2.05-2.67,4.72-4.74,8.02-6.21,3.29-1.47,6.9-2.2,10.82-2.2,5.7,0,10.6,1.25,14.7,3.74,4.1,2.49,7.28,5.99,9.55,10.49,2.27,4.5,3.41,9.82,3.41,15.97v51.71h-12.83v-48.23c0-6.95-1.6-12.25-4.81-15.9-3.21-3.65-7.84-5.48-13.9-5.48s-10.69,1.83-13.9,5.48c-3.21,3.65-4.81,8.95-4.81,15.9v48.23h-12.83Z"/><path d="m216.27,121.83v11.49l-24.99,3.74c-4.1.71-7.17,2.16-9.22,4.34-2.05,2.18-3.07,5.01-3.07,8.48s1.22,6.12,3.67,8.22c2.45,2.09,5.72,3.14,9.82,3.14s7.84-.98,11.22-2.94c3.38-1.96,6.08-4.59,8.08-7.88,2-3.29,3.01-6.99,3.01-11.09v-20.58c0-5.52-1.63-9.84-4.88-12.96-3.25-3.12-7.77-4.68-13.56-4.68-4.1,0-7.7.69-10.82,2.07-3.12,1.38-5.68,3.36-7.68,5.95-2,2.59-3.32,5.75-3.94,9.49h-12.29c.44-6.06,2.18-11.29,5.21-15.7,3.03-4.41,7.08-7.79,12.16-10.15,5.08-2.36,11-3.54,17.77-3.54,9.71,0,17.21,2.47,22.51,7.42,5.3,4.94,7.95,12,7.95,21.18v53.31h-12.43v-7.75h-3.74c-2.14,3.12-5.01,5.52-8.62,7.21-3.61,1.69-7.9,2.54-12.89,2.54s-9.15-.96-12.76-2.87c-3.61-1.91-6.39-4.56-8.35-7.95-1.96-3.38-2.94-7.35-2.94-11.89,0-6.59,2.07-11.98,6.21-16.17,4.14-4.19,10.09-6.9,17.84-8.15l26.72-4.28Z"/><path d="m260.09,171.13v-79.9h12.83v6.41h3.74c2.05-2.67,4.72-4.74,8.02-6.21,3.29-1.47,6.9-2.2,10.82-2.2,5.7,0,10.6,1.25,14.7,3.74,4.1,2.49,7.28,5.99,9.55,10.49,2.27,4.5,3.41,9.82,3.41,15.97v51.71h-12.83v-48.23c0-6.95-1.6-12.25-4.81-15.9-3.21-3.65-7.84-5.48-13.9-5.48s-10.69,1.83-13.9,5.48c-3.21,3.65-4.81,8.95-4.81,15.9v48.23h-12.83Z"/><path d="m384.35,173.13c-7.21,0-13.49-1.69-18.84-5.08-5.34-3.38-9.47-8.22-12.36-14.5-2.9-6.28-4.34-13.74-4.34-22.38s1.45-16.08,4.34-22.31c2.89-6.23,7.01-11.07,12.36-14.5,5.34-3.43,11.62-5.14,18.84-5.14s13.61,1.72,18.91,5.14c5.3,3.43,9.4,8.26,12.29,14.5,2.89,6.24,4.34,13.67,4.34,22.31s-1.45,16.1-4.34,22.38c-2.89,6.28-6.99,11.11-12.29,14.5-5.3,3.38-11.6,5.08-18.91,5.08Zm0-12.02c7.21,0,12.8-2.63,16.77-7.88,3.96-5.25,5.95-12.6,5.95-22.05s-1.98-16.79-5.95-22.05c-3.96-5.25-9.55-7.88-16.77-7.88s-12.69,2.63-16.7,7.88c-4.01,5.26-6.01,12.61-6.01,22.05s2,16.79,6.01,22.05c4.01,5.26,9.57,7.88,16.7,7.88Z"/><path d="m472.66,173.13c-6.59,0-12.31-1.69-17.17-5.08-4.86-3.38-8.62-8.22-11.29-14.5-2.67-6.28-4.01-13.74-4.01-22.38s1.34-16.08,4.01-22.31c2.67-6.23,6.43-11.07,11.29-14.5,4.85-3.43,10.58-5.14,17.17-5.14,4.54,0,8.64.89,12.29,2.67,3.65,1.78,6.41,4.28,8.28,7.48h3.74v-41.55h12.83v113.3h-12.83v-8.02h-3.74c-1.87,3.12-4.63,5.57-8.28,7.35-3.65,1.78-7.75,2.67-12.29,2.67Zm2.54-12.02c7.04,0,12.51-2.63,16.43-7.88,3.92-5.25,5.88-12.6,5.88-22.05s-1.96-16.79-5.88-22.05c-3.92-5.25-9.4-7.88-16.43-7.88s-12.49,2.63-16.37,7.88c-3.87,5.26-5.81,12.61-5.81,22.05s1.94,16.79,5.81,22.05c3.87,5.26,9.33,7.88,16.37,7.88Z"/><path d="m590.37,121.83v11.49l-24.98,3.74c-4.1.71-7.17,2.16-9.22,4.34-2.05,2.18-3.07,5.01-3.07,8.48s1.22,6.12,3.67,8.22c2.45,2.09,5.72,3.14,9.82,3.14s7.84-.98,11.22-2.94c3.38-1.96,6.08-4.59,8.08-7.88,2-3.29,3.01-6.99,3.01-11.09v-20.58c0-5.52-1.63-9.84-4.88-12.96-3.25-3.12-7.77-4.68-13.56-4.68-4.1,0-7.71.69-10.82,2.07-3.12,1.38-5.68,3.36-7.68,5.95-2,2.59-3.32,5.75-3.94,9.49h-12.29c.44-6.06,2.18-11.29,5.21-15.7,3.03-4.41,7.08-7.79,12.16-10.15,5.08-2.36,11-3.54,17.77-3.54,9.71,0,17.21,2.47,22.51,7.42,5.3,4.94,7.95,12,7.95,21.18v53.31h-12.43v-7.75h-3.74c-2.14,3.12-5.01,5.52-8.62,7.21s-7.91,2.54-12.89,2.54-9.15-.96-12.76-2.87c-3.61-1.91-6.39-4.56-8.35-7.95-1.96-3.38-2.94-7.35-2.94-11.89,0-6.59,2.07-11.98,6.21-16.17,4.14-4.19,10.09-6.9,17.84-8.15l26.72-4.28Z"/><path d="m645.42,146.81c1.16,4.63,3.45,8.17,6.88,10.62,3.43,2.45,7.9,3.67,13.43,3.67s10.06-1.07,13.09-3.21c3.03-2.14,4.54-5.17,4.54-9.09,0-2.76-1.2-5.03-3.61-6.81-2.41-1.78-6.01-3.03-10.82-3.74l-10.02-1.47c-8.55-1.25-14.83-3.74-18.84-7.48s-6.01-8.91-6.01-15.5c0-7.66,2.78-13.67,8.35-18.04,5.57-4.36,13.25-6.55,23.05-6.55s17.84,2.47,23.58,7.42c5.75,4.94,8.84,11.87,9.29,20.78h-11.76c-1.16-5.25-3.52-9.26-7.08-12.03-3.56-2.76-8.28-4.14-14.16-4.14s-10.56,1.09-13.76,3.27c-3.21,2.18-4.81,5.23-4.81,9.15,0,2.76,1.2,5.01,3.61,6.75,2.4,1.74,6.06,2.96,10.96,3.67l10.02,1.47c8.55,1.34,14.81,3.87,18.77,7.62,3.96,3.74,5.95,8.91,5.95,15.5,0,5.08-1.23,9.44-3.67,13.09-2.45,3.65-5.95,6.46-10.49,8.42-4.54,1.96-9.98,2.94-16.3,2.94-9.71,0-17.35-2.29-22.91-6.88-5.57-4.59-8.62-11.07-9.15-19.44h11.89Z"/><path d="m727.72,171.13V57.83h12.83v39.82h3.74c2.05-2.67,4.72-4.74,8.02-6.21,3.29-1.47,6.9-2.2,10.82-2.2,5.7,0,10.6,1.25,14.7,3.74,4.1,2.49,7.28,5.99,9.55,10.49,2.27,4.5,3.41,9.82,3.41,15.97v51.71h-12.83v-48.23c0-6.95-1.6-12.25-4.81-15.9-3.21-3.65-7.84-5.48-13.9-5.48s-10.69,1.83-13.9,5.48c-3.21,3.65-4.81,8.95-4.81,15.9v48.23h-12.83Z"/></g><rect class="c" x="817.79" y="142.28" width="33.31" height="33.31" transform="translate(64.83 -200.57) rotate(14.25)"/></g><g><path class="b" d="m949.8,176.79c-5.21,0-9.88-1.1-14.01-3.3-4.13-2.2-7.32-5.19-9.56-8.96h-2.69v10.64h-5.39V60.95h5.39v45.66h2.69c2.24-3.86,5.43-6.87,9.56-9.02,4.13-2.16,8.8-3.23,14.01-3.23,6.64,0,12.35,1.62,17.11,4.85,4.76,3.23,8.37,7.93,10.84,14.08,2.47,6.15,3.7,13.58,3.7,22.29s-1.24,16.14-3.7,22.29c-2.47,6.15-6.08,10.84-10.84,14.08-4.76,3.23-10.46,4.85-17.11,4.85Zm-.27-4.85c8.35,0,14.86-3.21,19.53-9.63,4.67-6.42,7-15.33,7-26.74s-2.34-20.43-7-26.81c-4.67-6.38-11.18-9.56-19.53-9.56s-14.86,3.19-19.53,9.56c-4.67,6.38-7,15.31-7,26.81s2.33,20.43,7,26.8c4.67,6.38,11.18,9.56,19.53,9.56Z"/><path class="b" d="m1006.91,132.2h54.28l-1.89.27c0-10.86-2.09-19.15-6.26-24.85-4.18-5.7-10.26-8.55-18.25-8.55s-14.55,3.12-19.13,9.36c-4.58,6.24-6.87,15.02-6.87,26.33,0,12.21,2.31,21.48,6.94,27.82,4.62,6.33,11.34,9.5,20.14,9.5,6.38,0,11.74-1.86,16.1-5.59,4.35-3.72,7.38-9.09,9.09-16.1h5.39c-1.44,5.75-3.57,10.57-6.4,14.48-2.83,3.91-6.26,6.87-10.3,8.89s-8.67,3.03-13.87,3.03c-7.1,0-13.04-1.59-17.85-4.78-4.8-3.19-8.46-7.9-10.98-14.14-2.52-6.24-3.77-13.94-3.77-23.1,0-8.53,1.26-15.83,3.77-21.89,2.51-6.06,6.13-10.66,10.84-13.81,4.71-3.14,10.35-4.71,16.9-4.71s11.9,1.44,16.3,4.31c4.4,2.88,7.72,7.14,9.97,12.8,2.24,5.66,3.37,12.62,3.37,20.88,0,.72-.02,1.48-.07,2.29-.05.81-.11,1.57-.2,2.29h-57.25v-4.71Z"/><path class="b" d="m1112.38,77.38v18.59h38.52v4.71h-38.52v50.65c0,6.73,1.44,11.85,4.31,15.36,2.87,3.5,7.05,5.25,12.53,5.25,5.84,0,10.37-1.89,13.6-5.66,3.23-3.77,5.12-9.34,5.66-16.7h5.25c-.63,8.98-3.01,15.76-7.14,20.34-4.13,4.58-9.92,6.87-17.38,6.87s-12.8-2.13-16.57-6.4c-3.77-4.26-5.66-10.62-5.66-19.06v-50.65h-20.47v-4.71h20.47v-18.59h5.39Z"/><path class="b" d="m1231.05,128.84v5.25l-28.29,4.31c-5.75.99-10.15,2.96-13.2,5.93-3.05,2.96-4.58,6.83-4.58,11.58s1.68,8.85,5.05,11.72c3.37,2.88,7.97,4.31,13.81,4.31,5.21,0,9.74-1.1,13.6-3.3,3.86-2.2,6.87-5.27,9.03-9.23,2.16-3.95,3.23-8.53,3.23-13.74v-24.38c0-7-1.91-12.44-5.72-16.3-3.82-3.86-9.32-5.79-16.5-5.79-4.85,0-9.18.94-13,2.83-3.82,1.89-6.85,4.54-9.09,7.95-2.25,3.41-3.59,7.5-4.04,12.26h-5.12c.45-5.75,2.04-10.71,4.78-14.88,2.74-4.18,6.38-7.39,10.91-9.63,4.53-2.24,9.72-3.37,15.56-3.37,8.8,0,15.58,2.27,20.34,6.8,4.76,4.54,7.14,11.02,7.14,19.46v54.55h-5.25v-9.29h-2.69c-2.16,3.41-5.37,6.08-9.63,8.01-4.27,1.93-8.91,2.9-13.94,2.9s-9.18-.85-12.73-2.56c-3.55-1.7-6.31-4.11-8.28-7.21-1.98-3.1-2.96-6.8-2.96-11.11,0-6.02,1.86-10.98,5.59-14.88,3.73-3.91,8.96-6.4,15.69-7.48l30.31-4.71Z"/></g></svg>
