<?xml version="1.0" encoding="UTF-8"?><svg id="a" xmlns="http://www.w3.org/2000/svg" viewBox="0 0 910 237"><defs><style>.b{fill:#c7d1dc;}.c{fill:#0b73da;}</style></defs><g><g><path d="m73.04,171.13v-79.9h12.83v6.41h3.74c2.05-2.67,4.72-4.74,8.02-6.21,3.29-1.47,6.9-2.2,10.82-2.2,5.7,0,10.6,1.25,14.7,3.74,4.1,2.49,7.28,5.99,9.55,10.49,2.27,4.5,3.41,9.82,3.41,15.97v51.71h-12.83v-48.23c0-6.95-1.6-12.25-4.81-15.9-3.21-3.65-7.84-5.48-13.9-5.48s-10.69,1.83-13.9,5.48c-3.21,3.65-4.81,8.95-4.81,15.9v48.23h-12.83Z"/><path d="m216.27,121.83v11.49l-24.99,3.74c-4.1.71-7.17,2.16-9.22,4.34-2.05,2.18-3.07,5.01-3.07,8.48s1.22,6.12,3.67,8.22c2.45,2.09,5.72,3.14,9.82,3.14s7.84-.98,11.22-2.94c3.38-1.96,6.08-4.59,8.08-7.88,2-3.29,3.01-6.99,3.01-11.09v-20.58c0-5.52-1.63-9.84-4.88-12.96-3.25-3.12-7.77-4.68-13.56-4.68-4.1,0-7.7.69-10.82,2.07-3.12,1.38-5.68,3.36-7.68,5.95-2,2.59-3.32,5.75-3.94,9.49h-12.29c.44-6.06,2.18-11.29,5.21-15.7,3.03-4.41,7.08-7.79,12.16-10.15,5.08-2.36,11-3.54,17.77-3.54,9.71,0,17.21,2.47,22.51,7.42,5.3,4.94,7.95,12,7.95,21.18v53.31h-12.43v-7.75h-3.74c-2.14,3.12-5.01,5.52-8.62,7.21-3.61,1.69-7.9,2.54-12.89,2.54s-9.15-.96-12.76-2.87c-3.61-1.91-6.39-4.56-8.35-7.95-1.96-3.38-2.94-7.35-2.94-11.89,0-6.59,2.07-11.98,6.21-16.17,4.14-4.19,10.09-6.9,17.84-8.15l26.72-4.28Z"/><path d="m260.09,171.13v-79.9h12.83v6.41h3.74c2.05-2.67,4.72-4.74,8.02-6.21,3.29-1.47,6.9-2.2,10.82-2.2,5.7,0,10.6,1.25,14.7,3.74,4.1,2.49,7.28,5.99,9.55,10.49,2.27,4.5,3.41,9.82,3.41,15.97v51.71h-12.83v-48.23c0-6.95-1.6-12.25-4.81-15.9-3.21-3.65-7.84-5.48-13.9-5.48s-10.69,1.83-13.9,5.48c-3.21,3.65-4.81,8.95-4.81,15.9v48.23h-12.83Z"/><path d="m384.35,173.13c-7.21,0-13.49-1.69-18.84-5.08-5.34-3.38-9.47-8.22-12.36-14.5-2.9-6.28-4.34-13.74-4.34-22.38s1.45-16.08,4.34-22.31c2.89-6.23,7.01-11.07,12.36-14.5,5.34-3.43,11.62-5.14,18.84-5.14s13.61,1.72,18.91,5.14c5.3,3.43,9.4,8.26,12.29,14.5,2.89,6.24,4.34,13.67,4.34,22.31s-1.45,16.1-4.34,22.38c-2.89,6.28-6.99,11.11-12.29,14.5-5.3,3.38-11.6,5.08-18.91,5.08Zm0-12.02c7.21,0,12.8-2.63,16.77-7.88,3.96-5.25,5.95-12.6,5.95-22.05s-1.98-16.79-5.95-22.05c-3.96-5.25-9.55-7.88-16.77-7.88s-12.69,2.63-16.7,7.88c-4.01,5.26-6.01,12.61-6.01,22.05s2,16.79,6.01,22.05c4.01,5.26,9.57,7.88,16.7,7.88Z"/><path d="m472.66,173.13c-6.59,0-12.31-1.69-17.17-5.08-4.86-3.38-8.62-8.22-11.29-14.5-2.67-6.28-4.01-13.74-4.01-22.38s1.34-16.08,4.01-22.31c2.67-6.23,6.43-11.07,11.29-14.5,4.85-3.43,10.58-5.14,17.17-5.14,4.54,0,8.64.89,12.29,2.67,3.65,1.78,6.41,4.28,8.28,7.48h3.74v-41.55h12.83v113.3h-12.83v-8.02h-3.74c-1.87,3.12-4.63,5.57-8.28,7.35-3.65,1.78-7.75,2.67-12.29,2.67Zm2.54-12.02c7.04,0,12.51-2.63,16.43-7.88,3.92-5.25,5.88-12.6,5.88-22.05s-1.96-16.79-5.88-22.05c-3.92-5.25-9.4-7.88-16.43-7.88s-12.49,2.63-16.37,7.88c-3.87,5.26-5.81,12.61-5.81,22.05s1.94,16.79,5.81,22.05c3.87,5.26,9.33,7.88,16.37,7.88Z"/><path d="m590.37,121.83v11.49l-24.98,3.74c-4.1.71-7.17,2.16-9.22,4.34-2.05,2.18-3.07,5.01-3.07,8.48s1.22,6.12,3.67,8.22c2.45,2.09,5.72,3.14,9.82,3.14s7.84-.98,11.22-2.94c3.38-1.96,6.08-4.59,8.08-7.88,2-3.29,3.01-6.99,3.01-11.09v-20.58c0-5.52-1.63-9.84-4.88-12.96-3.25-3.12-7.77-4.68-13.56-4.68-4.1,0-7.71.69-10.82,2.07-3.12,1.38-5.68,3.36-7.68,5.95-2,2.59-3.32,5.75-3.94,9.49h-12.29c.44-6.06,2.18-11.29,5.21-15.7,3.03-4.41,7.08-7.79,12.16-10.15,5.08-2.36,11-3.54,17.77-3.54,9.71,0,17.21,2.47,22.51,7.42,5.3,4.94,7.95,12,7.95,21.18v53.31h-12.43v-7.75h-3.74c-2.14,3.12-5.01,5.52-8.62,7.21s-7.91,2.54-12.89,2.54-9.15-.96-12.76-2.87c-3.61-1.91-6.39-4.56-8.35-7.95-1.96-3.38-2.94-7.35-2.94-11.89,0-6.59,2.07-11.98,6.21-16.17,4.14-4.19,10.09-6.9,17.84-8.15l26.72-4.28Z"/><path d="m645.42,146.81c1.16,4.63,3.45,8.17,6.88,10.62,3.43,2.45,7.9,3.67,13.43,3.67s10.06-1.07,13.09-3.21c3.03-2.14,4.54-5.17,4.54-9.09,0-2.76-1.2-5.03-3.61-6.81-2.41-1.78-6.01-3.03-10.82-3.74l-10.02-1.47c-8.55-1.25-14.83-3.74-18.84-7.48s-6.01-8.91-6.01-15.5c0-7.66,2.78-13.67,8.35-18.04,5.57-4.36,13.25-6.55,23.05-6.55s17.84,2.47,23.58,7.42c5.75,4.94,8.84,11.87,9.29,20.78h-11.76c-1.16-5.25-3.52-9.26-7.08-12.03-3.56-2.76-8.28-4.14-14.16-4.14s-10.56,1.09-13.76,3.27c-3.21,2.18-4.81,5.23-4.81,9.15,0,2.76,1.2,5.01,3.61,6.75,2.4,1.74,6.06,2.96,10.96,3.67l10.02,1.47c8.55,1.34,14.81,3.87,18.77,7.62,3.96,3.74,5.95,8.91,5.95,15.5,0,5.08-1.23,9.44-3.67,13.09-2.45,3.65-5.95,6.46-10.49,8.42-4.54,1.96-9.98,2.94-16.3,2.94-9.71,0-17.35-2.29-22.91-6.88-5.57-4.59-8.62-11.07-9.15-19.44h11.89Z"/><path d="m727.72,171.13V57.83h12.83v39.82h3.74c2.05-2.67,4.72-4.74,8.02-6.21,3.29-1.47,6.9-2.2,10.82-2.2,5.7,0,10.6,1.25,14.7,3.74,4.1,2.49,7.28,5.99,9.55,10.49,2.27,4.5,3.41,9.82,3.41,15.97v51.71h-12.83v-48.23c0-6.95-1.6-12.25-4.81-15.9-3.21-3.65-7.84-5.48-13.9-5.48s-10.69,1.83-13.9,5.48c-3.21,3.65-4.81,8.95-4.81,15.9v48.23h-12.83Z"/></g><rect class="c" x="817.79" y="142.28" width="33.31" height="33.31" transform="translate(64.83 -200.57) rotate(14.25)"/></g></svg>
